<svg width="42" height="42" viewBox="0 0 42 42" fill="none" xmlns="http://www.w3.org/2000/svg">
<path d="M23.6862 13.8835C27.8286 16.2348 30.6383 20.7674 30.6383 25.8241C30.6383 27.8883 30.1696 29.8314 29.3339 31.5582H34.7035C35.6934 31.5582 36.6427 31.9514 37.3427 32.6513C38.0426 33.3513 38.4359 34.3006 38.4359 35.2905C38.4359 36.2804 38.0426 37.2297 37.3427 37.9296C36.6427 38.6296 35.6934 39.0228 34.7035 39.0228H18.6462C18.359 39.0228 18.0848 39.019 17.8221 39.0125C17.6418 39.019 17.4615 39.0228 17.2787 39.0228C8.34476 39.0228 3.83789 33.1626 3.83789 25.7842C3.83789 20.2678 7.22706 15.3965 12.0224 13.2899L12.0674 13.2641C13.9191 12.4851 17.5568 9.65347 20.6588 4.88906C22.2079 2.89703 24.5528 2.6176 26.1907 3.87051C27.8273 5.12213 27.9728 7.4554 26.9466 9.11522C26.2435 10.2522 24.4613 12.7851 23.6862 13.8835Z" fill="url(#paint0_linear_9_1787)"/>
<path d="M23.6862 13.8835C27.8286 16.2348 30.6383 20.7674 30.6383 25.8241C30.6383 27.8883 30.1696 29.8314 29.3339 31.5582H34.7035C35.6934 31.5582 36.6427 31.9514 37.3427 32.6513C38.0426 33.3513 38.4359 34.3006 38.4359 35.2905C38.4359 36.2804 38.0426 37.2297 37.3427 37.9296C36.6427 38.6296 35.6934 39.0228 34.7035 39.0228H18.6462C18.359 39.0228 18.0848 39.019 17.8221 39.0125C17.6418 39.019 17.4615 39.0228 17.2787 39.0228C8.34476 39.0228 3.83789 33.1626 3.83789 25.7842C3.83789 20.2678 7.22706 15.3965 12.0224 13.2899L12.0674 13.2641C13.9191 12.4851 17.5568 9.65347 20.6588 4.88906C22.2079 2.89703 24.5528 2.6176 26.1907 3.87051C27.8273 5.12213 27.9728 7.4554 26.9466 9.11522C26.2435 10.2522 24.4613 12.7851 23.6862 13.8835Z" fill="url(#paint1_radial_9_1787)"/>
<g filter="url(#filter0_f_9_1787)">
<path d="M19.4111 19.4141C19.4111 17.5611 20.7889 16.0584 22.4861 16.0584H26.9595C28.6579 16.0584 30.0345 17.5611 30.0345 19.4141C30.0345 20.6271 29.446 21.6894 28.5627 22.2779C29.4421 22.8316 30.0345 23.8681 30.0345 25.0554C30.0345 26.2581 29.428 27.305 28.5305 27.8535C29.4306 28.4317 30.0345 29.5017 30.0345 30.7237C30.0345 31.6895 29.8478 33.1369 28.3116 33.4922L22.4616 34.0524C20.7774 34.0524 19.4111 32.5625 19.4111 30.7237C19.4111 29.5004 20.0163 28.4317 20.9164 27.8522C20.0189 27.305 19.4111 26.2581 19.4111 25.0554C19.4111 23.8681 20.0035 22.8316 20.8829 22.2779C19.9996 21.6894 19.4111 20.6271 19.4111 19.4141Z" fill="url(#paint2_radial_9_1787)"/>
</g>
<path d="M34.7037 31.5582H22.53C20.4691 31.5582 18.7983 33.2289 18.7983 35.2898V35.2911C18.7983 37.3521 20.4691 39.0228 22.53 39.0228H34.7037C36.7647 39.0228 38.4354 37.3521 38.4354 35.2911V35.2898C38.4354 33.2289 36.7647 31.5582 34.7037 31.5582Z" fill="url(#paint3_radial_9_1787)"/>
<path d="M34.7037 31.5582H22.53C20.4691 31.5582 18.7983 33.2289 18.7983 35.2898V35.2911C18.7983 37.3521 20.4691 39.0228 22.53 39.0228H34.7037C36.7647 39.0228 38.4354 37.3521 38.4354 35.2911V35.2898C38.4354 33.2289 36.7647 31.5582 34.7037 31.5582Z" fill="url(#paint4_radial_9_1787)"/>
<path d="M29.729 12.7864H24.2435C22.1712 12.7864 20.4912 14.4664 20.4912 16.5387C20.4912 18.611 22.1712 20.291 24.2435 20.291H29.729C31.8013 20.291 33.4813 18.611 33.4813 16.5387C33.4813 14.4664 31.8013 12.7864 29.729 12.7864Z" fill="url(#paint5_radial_9_1787)"/>
<path d="M29.729 12.7864H24.2435C22.1712 12.7864 20.4912 14.4664 20.4912 16.5387C20.4912 18.611 22.1712 20.291 24.2435 20.291H29.729C31.8013 20.291 33.4813 18.611 33.4813 16.5387C33.4813 14.4664 31.8013 12.7864 29.729 12.7864Z" fill="url(#paint6_linear_9_1787)"/>
<path d="M29.7586 25.4623H24.2139C22.1579 25.4623 20.4912 27.1287 20.4912 29.1843C20.4912 31.2399 22.1579 32.9063 24.2139 32.9063H29.7586C31.8146 32.9063 33.4813 31.2399 33.4813 29.1843C33.4813 27.1287 31.8146 25.4623 29.7586 25.4623Z" fill="url(#paint7_radial_9_1787)"/>
<path d="M29.7586 25.4623H24.2139C22.1579 25.4623 20.4912 27.1287 20.4912 29.1843C20.4912 31.2399 22.1579 32.9063 24.2139 32.9063H29.7586C31.8146 32.9063 33.4813 31.2399 33.4813 29.1843C33.4813 27.1287 31.8146 25.4623 29.7586 25.4623Z" fill="url(#paint8_linear_9_1787)"/>
<path d="M29.7586 25.4623H24.2139C22.1579 25.4623 20.4912 27.1287 20.4912 29.1843C20.4912 31.2399 22.1579 32.9063 24.2139 32.9063H29.7586C31.8146 32.9063 33.4813 31.2399 33.4813 29.1843C33.4813 27.1287 31.8146 25.4623 29.7586 25.4623Z" fill="url(#paint9_radial_9_1787)"/>
<g filter="url(#filter1_f_9_1787)">
<path d="M30.9898 19.0741H23.1002C22.8555 19.0741 22.6572 19.2724 22.6572 19.5171C22.6572 19.7617 22.8555 19.96 23.1002 19.96H30.9898C31.2344 19.96 31.4328 19.7617 31.4328 19.5171C31.4328 19.2724 31.2344 19.0741 30.9898 19.0741Z" fill="#C26B04"/>
</g>
<g filter="url(#filter2_f_9_1787)">
<path d="M30.9898 25.7327H23.1002C22.8555 25.7327 22.6572 25.931 22.6572 26.1757C22.6572 26.4203 22.8555 26.6186 23.1002 26.6186H30.9898C31.2344 26.6186 31.4328 26.4203 31.4328 26.1757C31.4328 25.931 31.2344 25.7327 30.9898 25.7327Z" fill="#C26B04"/>
</g>
<path d="M29.9003 19.2647H24.0722C22.0945 19.2647 20.4912 20.868 20.4912 22.8457V22.847C20.4912 24.8247 22.0945 26.428 24.0722 26.428H29.9003C31.878 26.428 33.4813 24.8247 33.4813 22.847V22.8457C33.4813 20.868 31.878 19.2647 29.9003 19.2647Z" fill="url(#paint10_radial_9_1787)"/>
<path d="M29.9003 19.2647H24.0722C22.0945 19.2647 20.4912 20.868 20.4912 22.8457V22.847C20.4912 24.8247 22.0945 26.428 24.0722 26.428H29.9003C31.878 26.428 33.4813 24.8247 33.4813 22.847V22.8457C33.4813 20.868 31.878 19.2647 29.9003 19.2647Z" fill="url(#paint11_linear_9_1787)"/>
<path d="M29.9003 19.2647H24.0722C22.0945 19.2647 20.4912 20.868 20.4912 22.8457V22.847C20.4912 24.8247 22.0945 26.428 24.0722 26.428H29.9003C31.878 26.428 33.4813 24.8247 33.4813 22.847V22.8457C33.4813 20.868 31.878 19.2647 29.9003 19.2647Z" fill="url(#paint12_radial_9_1787)"/>
<path d="M14.2616 19.4694C12.8992 18.4264 11.1377 15.9798 11.309 14.244C11.3733 13.577 11.4828 13.5912 12.0674 13.2654C13.9191 12.4851 17.5568 9.65347 20.6588 4.88906C22.2079 2.89703 24.5527 2.6176 26.1906 3.87051C27.8273 5.12213 27.9728 7.4554 26.9465 9.11522C26.0361 10.5883 23.3153 14.4063 23.3153 14.4063L19.4934 18.7715C19.1958 19.1609 18.8243 19.4879 18.4003 19.7337C17.9762 19.9796 17.5079 20.1394 17.0221 20.2043C16.5363 20.2691 16.0424 20.2375 15.5688 20.1114C15.0951 19.9854 14.6509 19.7672 14.2616 19.4694Z" fill="url(#paint13_radial_9_1787)"/>
<path d="M14.2616 19.4694C12.8992 18.4264 11.1377 15.9798 11.309 14.244C11.3733 13.577 11.4828 13.5912 12.0674 13.2654C13.9191 12.4851 17.5568 9.65347 20.6588 4.88906C22.2079 2.89703 24.5527 2.6176 26.1906 3.87051C27.8273 5.12213 27.9728 7.4554 26.9465 9.11522C26.0361 10.5883 23.3153 14.4063 23.3153 14.4063L19.4934 18.7715C19.1958 19.1609 18.8243 19.4879 18.4003 19.7337C17.9762 19.9796 17.5079 20.1394 17.0221 20.2043C16.5363 20.2691 16.0424 20.2375 15.5688 20.1114C15.0951 19.9854 14.6509 19.7672 14.2616 19.4694Z" fill="url(#paint14_radial_9_1787)"/>
<defs>
<filter id="filter0_f_9_1787" x="17.4796" y="14.1269" width="14.4866" height="21.857" filterUnits="userSpaceOnUse" color-interpolation-filters="sRGB">
<feFlood flood-opacity="0" result="BackgroundImageFix"/>
<feBlend mode="normal" in="SourceGraphic" in2="BackgroundImageFix" result="shape"/>
<feGaussianBlur stdDeviation="0.965758" result="effect1_foregroundBlur_9_1787"/>
</filter>
<filter id="filter1_f_9_1787" x="21.6915" y="18.1084" width="10.7069" height="2.81744" filterUnits="userSpaceOnUse" color-interpolation-filters="sRGB">
<feFlood flood-opacity="0" result="BackgroundImageFix"/>
<feBlend mode="normal" in="SourceGraphic" in2="BackgroundImageFix" result="shape"/>
<feGaussianBlur stdDeviation="0.482879" result="effect1_foregroundBlur_9_1787"/>
</filter>
<filter id="filter2_f_9_1787" x="21.6915" y="24.7669" width="10.7069" height="2.81744" filterUnits="userSpaceOnUse" color-interpolation-filters="sRGB">
<feFlood flood-opacity="0" result="BackgroundImageFix"/>
<feBlend mode="normal" in="SourceGraphic" in2="BackgroundImageFix" result="shape"/>
<feGaussianBlur stdDeviation="0.482879" result="effect1_foregroundBlur_9_1787"/>
</filter>
<linearGradient id="paint0_linear_9_1787" x1="19.0042" y1="40.8127" x2="39.9469" y2="15.703" gradientUnits="userSpaceOnUse">
<stop stop-color="#FDB033"/>
<stop offset="1" stop-color="#FFCB25"/>
</linearGradient>
<radialGradient id="paint1_radial_9_1787" cx="0" cy="0" r="1" gradientUnits="userSpaceOnUse" gradientTransform="translate(10.3638 14.6857) scale(11.1316 5.89621)">
<stop stop-color="#FFD337"/>
<stop offset="1" stop-color="#FFC42A" stop-opacity="0"/>
</radialGradient>
<radialGradient id="paint2_radial_9_1787" cx="0" cy="0" r="1" gradientUnits="userSpaceOnUse" gradientTransform="translate(20.7452 32.1376) rotate(-56.922) scale(11.0601 9.20439)">
<stop stop-color="#E47938"/>
<stop offset="1" stop-color="#A95A0C"/>
</radialGradient>
<radialGradient id="paint3_radial_9_1787" cx="0" cy="0" r="1" gradientUnits="userSpaceOnUse" gradientTransform="translate(36.7949 34.4091) rotate(180) scale(13.0124 2.13483)">
<stop stop-color="#FFD230"/>
<stop offset="1" stop-color="#FFD230" stop-opacity="0"/>
</radialGradient>
<radialGradient id="paint4_radial_9_1787" cx="0" cy="0" r="1" gradientUnits="userSpaceOnUse" gradientTransform="translate(38.0147 33.4931) rotate(149.897) scale(3.58398 4.28371)">
<stop stop-color="#FFEA4A"/>
<stop offset="1" stop-color="#FFEA4A" stop-opacity="0"/>
</radialGradient>
<radialGradient id="paint5_radial_9_1787" cx="0" cy="0" r="1" gradientUnits="userSpaceOnUse" gradientTransform="translate(31.1609 15.7249) rotate(180) scale(7.56511 3.66053)">
<stop stop-color="#FFE949"/>
<stop offset="1" stop-color="#FFBE3E"/>
</radialGradient>
<linearGradient id="paint6_linear_9_1787" x1="19.7135" y1="17.583" x2="25.2891" y2="17.583" gradientUnits="userSpaceOnUse">
<stop stop-color="#E08C16"/>
<stop offset="1" stop-color="#E08C16" stop-opacity="0"/>
</linearGradient>
<radialGradient id="paint7_radial_9_1787" cx="0" cy="0" r="1" gradientUnits="userSpaceOnUse" gradientTransform="translate(31.1609 28.3763) rotate(180) scale(7.56511 3.6311)">
<stop stop-color="#FFE949"/>
<stop offset="1" stop-color="#FFBE3E"/>
</radialGradient>
<linearGradient id="paint8_linear_9_1787" x1="19.7135" y1="30.2202" x2="25.2891" y2="30.2202" gradientUnits="userSpaceOnUse">
<stop stop-color="#E08C16"/>
<stop offset="1" stop-color="#E08C16" stop-opacity="0"/>
</linearGradient>
<radialGradient id="paint9_radial_9_1787" cx="0" cy="0" r="1" gradientUnits="userSpaceOnUse" gradientTransform="translate(22.9674 33.0493) scale(8.45163 2.37574)">
<stop stop-color="#F27C5B"/>
<stop offset="1" stop-color="#F27C5B" stop-opacity="0"/>
</radialGradient>
<radialGradient id="paint10_radial_9_1787" cx="0" cy="0" r="1" gradientUnits="userSpaceOnUse" gradientTransform="translate(31.1609 22.0692) rotate(180) scale(7.56511 3.4937)">
<stop stop-color="#FFE949"/>
<stop offset="1" stop-color="#FFBE3E"/>
</radialGradient>
<linearGradient id="paint11_linear_9_1787" x1="20.4912" y1="23.6325" x2="25.2054" y2="23.6325" gradientUnits="userSpaceOnUse">
<stop stop-color="#E08C16"/>
<stop offset="1" stop-color="#E08C16" stop-opacity="0"/>
</linearGradient>
<radialGradient id="paint12_radial_9_1787" cx="0" cy="0" r="1" gradientUnits="userSpaceOnUse" gradientTransform="translate(22.9674 26.5645) scale(8.45163 1.79598)">
<stop stop-color="#E9842F"/>
<stop offset="1" stop-color="#E9842F" stop-opacity="0"/>
</radialGradient>
<radialGradient id="paint13_radial_9_1787" cx="0" cy="0" r="1" gradientUnits="userSpaceOnUse" gradientTransform="translate(17.2387 8.68127) rotate(44.029) scale(3.35805 9.70959)">
<stop stop-color="#D6983B"/>
<stop offset="0.858" stop-color="#D6983B" stop-opacity="0"/>
</radialGradient>
<radialGradient id="paint14_radial_9_1787" cx="0" cy="0" r="1" gradientUnits="userSpaceOnUse" gradientTransform="translate(27.5967 4.41591) rotate(143.588) scale(5.21986 5.38941)">
<stop stop-color="#FFEA4A"/>
<stop offset="1" stop-color="#FFEA4A" stop-opacity="0"/>
</radialGradient>
</defs>
</svg>
