<svg width="36" height="36" viewBox="0 0 36 36" fill="none" xmlns="http://www.w3.org/2000/svg">
<g filter="url(#filter0_d_9_2033)">
<path d="M10.6347 12.5775L7.34184 2.57736C7.32249 2.51979 7.32229 2.4575 7.34128 2.39981C7.36026 2.34211 7.39742 2.29212 7.44718 2.2573C7.49695 2.22247 7.55665 2.2047 7.61735 2.20662C7.67806 2.20855 7.73651 2.23008 7.78397 2.26799L15.8198 8.63211C15.9367 8.72466 16.0855 8.76705 16.2336 8.74997C16.3817 8.73288 16.5169 8.65772 16.6096 8.54099L19.5548 4.82736C19.5892 4.78397 19.6355 4.75167 19.6881 4.7345C19.7407 4.71732 19.7972 4.71604 19.8505 4.73081C19.9038 4.74558 19.9516 4.77575 19.9879 4.81753C20.0241 4.85932 20.0472 4.91087 20.0543 4.96574L20.6742 9.76274C20.6847 9.84389 20.7128 9.92176 20.7565 9.99094C20.8002 10.0601 20.8585 10.1189 20.9272 10.1633C20.996 10.2076 21.0736 10.2364 21.1546 10.2477C21.2357 10.259 21.3182 10.2524 21.3965 10.2285L29.51 7.75011C29.7777 7.66799 29.9881 7.98636 29.8058 8.20124L24.5971 14.3302C24.5433 14.3935 24.5043 14.468 24.4827 14.5482C24.4611 14.6284 24.4575 14.7124 24.4723 14.7941C24.487 14.8759 24.5197 14.9533 24.5679 15.021C24.6161 15.0886 24.6787 15.1447 24.7512 15.1852L32.9378 19.7516C33.1831 19.8866 33.0998 20.2579 32.8197 20.277L23.5295 20.9014C23.4423 20.9072 23.3577 20.9333 23.2824 20.9775C23.207 21.0217 23.143 21.0829 23.0954 21.1561C23.0478 21.2294 23.0179 21.3127 23.0081 21.3995C22.9983 21.4863 23.0089 21.5742 23.039 21.6562L24.7973 26.4544C24.8184 26.5112 24.8206 26.5732 24.8035 26.6314C24.7865 26.6895 24.7511 26.7406 24.7027 26.777C24.6543 26.8134 24.5954 26.8332 24.5348 26.8335C24.4742 26.8337 24.4152 26.8144 24.3665 26.7784L20.2073 23.7127C20.1391 23.6625 20.0603 23.6283 19.977 23.6128C19.8936 23.5973 19.8079 23.6008 19.7261 23.6231C19.6443 23.6454 19.5686 23.6859 19.5047 23.7415C19.4407 23.7972 19.3902 23.8666 19.3568 23.9445L15.3158 33.4474C15.2067 33.7061 14.8276 33.6611 14.7803 33.3844L12.8802 22.2637C12.8672 22.188 12.8389 22.1158 12.7969 22.0514C12.7549 21.9871 12.7001 21.932 12.6361 21.8896C12.572 21.8473 12.4999 21.8185 12.4242 21.805C12.3486 21.7916 12.271 21.7938 12.1962 21.8115L3.41334 23.8927C3.12422 23.9614 2.94084 23.5935 3.16922 23.4034L9.39947 18.2115C9.47103 18.1518 9.52666 18.0753 9.56135 17.9889C9.59604 17.9024 9.60871 17.8087 9.59823 17.7161C9.58775 17.6235 9.55443 17.535 9.50128 17.4585C9.44813 17.382 9.37681 17.3199 9.29372 17.2777L4.84547 15.0131C4.79419 14.9868 4.75223 14.9453 4.72529 14.8944C4.69835 14.8434 4.68772 14.7854 4.69484 14.7282C4.70196 14.671 4.72648 14.6173 4.7651 14.5745C4.80371 14.5317 4.85455 14.5018 4.91072 14.4889L10.223 13.2997C10.2996 13.2826 10.3717 13.2497 10.4348 13.203C10.4979 13.1563 10.5506 13.0969 10.5893 13.0287C10.6281 12.9605 10.6522 12.8849 10.66 12.8068C10.6678 12.7287 10.6592 12.6498 10.6347 12.5752V12.5775Z" fill="url(#paint0_linear_9_2033)"/>
<path d="M10.6347 12.5775L7.34184 2.57736C7.32249 2.51979 7.32229 2.4575 7.34128 2.39981C7.36026 2.34211 7.39742 2.29212 7.44718 2.2573C7.49695 2.22247 7.55665 2.2047 7.61735 2.20662C7.67806 2.20855 7.73651 2.23008 7.78397 2.26799L15.8198 8.63211C15.9367 8.72466 16.0855 8.76705 16.2336 8.74997C16.3817 8.73288 16.5169 8.65772 16.6096 8.54099L19.5548 4.82736C19.5892 4.78397 19.6355 4.75167 19.6881 4.7345C19.7407 4.71732 19.7972 4.71604 19.8505 4.73081C19.9038 4.74558 19.9516 4.77575 19.9879 4.81753C20.0241 4.85932 20.0472 4.91087 20.0543 4.96574L20.6742 9.76274C20.6847 9.84389 20.7128 9.92176 20.7565 9.99094C20.8002 10.0601 20.8585 10.1189 20.9272 10.1633C20.996 10.2076 21.0736 10.2364 21.1546 10.2477C21.2357 10.259 21.3182 10.2524 21.3965 10.2285L29.51 7.75011C29.7777 7.66799 29.9881 7.98636 29.8058 8.20124L24.5971 14.3302C24.5433 14.3935 24.5043 14.468 24.4827 14.5482C24.4611 14.6284 24.4575 14.7124 24.4723 14.7941C24.487 14.8759 24.5197 14.9533 24.5679 15.021C24.6161 15.0886 24.6787 15.1447 24.7512 15.1852L32.9378 19.7516C33.1831 19.8866 33.0998 20.2579 32.8197 20.277L23.5295 20.9014C23.4423 20.9072 23.3577 20.9333 23.2824 20.9775C23.207 21.0217 23.143 21.0829 23.0954 21.1561C23.0478 21.2294 23.0179 21.3127 23.0081 21.3995C22.9983 21.4863 23.0089 21.5742 23.039 21.6562L24.7973 26.4544C24.8184 26.5112 24.8206 26.5732 24.8035 26.6314C24.7865 26.6895 24.7511 26.7406 24.7027 26.777C24.6543 26.8134 24.5954 26.8332 24.5348 26.8335C24.4742 26.8337 24.4152 26.8144 24.3665 26.7784L20.2073 23.7127C20.1391 23.6625 20.0603 23.6283 19.977 23.6128C19.8936 23.5973 19.8079 23.6008 19.7261 23.6231C19.6443 23.6454 19.5686 23.6859 19.5047 23.7415C19.4407 23.7972 19.3902 23.8666 19.3568 23.9445L15.3158 33.4474C15.2067 33.7061 14.8276 33.6611 14.7803 33.3844L12.8802 22.2637C12.8672 22.188 12.8389 22.1158 12.7969 22.0514C12.7549 21.9871 12.7001 21.932 12.6361 21.8896C12.572 21.8473 12.4999 21.8185 12.4242 21.805C12.3486 21.7916 12.271 21.7938 12.1962 21.8115L3.41334 23.8927C3.12422 23.9614 2.94084 23.5935 3.16922 23.4034L9.39947 18.2115C9.47103 18.1518 9.52666 18.0753 9.56135 17.9889C9.59604 17.9024 9.60871 17.8087 9.59823 17.7161C9.58775 17.6235 9.55443 17.535 9.50128 17.4585C9.44813 17.382 9.37681 17.3199 9.29372 17.2777L4.84547 15.0131C4.79419 14.9868 4.75223 14.9453 4.72529 14.8944C4.69835 14.8434 4.68772 14.7854 4.69484 14.7282C4.70196 14.671 4.72648 14.6173 4.7651 14.5745C4.80371 14.5317 4.85455 14.5018 4.91072 14.4889L10.223 13.2997C10.2996 13.2826 10.3717 13.2497 10.4348 13.203C10.4979 13.1563 10.5506 13.0969 10.5893 13.0287C10.6281 12.9605 10.6522 12.8849 10.66 12.8068C10.6678 12.7287 10.6592 12.6498 10.6347 12.5752V12.5775Z" fill="url(#paint1_linear_9_2033)"/>
</g>
<g filter="url(#filter1_f_9_2033)">
<path d="M12.1609 17.4375L10.3013 19.1745C10.0954 19.3657 10.2676 19.7066 10.5443 19.656L13.9891 19.0203C14.0282 19.0131 14.0684 19.0142 14.107 19.0237C14.1456 19.0331 14.1818 19.0506 14.2132 19.0751C14.2445 19.0996 14.2704 19.1304 14.2889 19.1655C14.3075 19.2007 14.3184 19.2394 14.3209 19.2791L14.6584 24.633C14.6798 24.9468 15.1129 25.0121 15.2243 24.7185L16.9939 20.0677C17.0099 20.0257 17.0357 19.9882 17.0692 19.9582C17.1027 19.9282 17.1429 19.9067 17.1865 19.8955C17.23 19.8842 17.2755 19.8836 17.3194 19.8936C17.3632 19.9036 17.404 19.924 17.4383 19.953L19.0043 21.2805C19.0496 21.3191 19.106 21.3424 19.1653 21.3469C19.2247 21.3515 19.2839 21.3371 19.3346 21.3058C19.3852 21.2746 19.4247 21.228 19.4472 21.1729C19.4697 21.1178 19.4742 21.057 19.4599 20.9992L18.9402 18.8336C18.9298 18.7907 18.9297 18.7459 18.9399 18.703C18.9501 18.66 18.9702 18.62 18.9987 18.5863C19.0272 18.5525 19.0632 18.526 19.1038 18.5088C19.1445 18.4915 19.1886 18.4841 19.2327 18.4871L25.1524 18.8763C25.4056 18.8932 25.4899 18.5456 25.2559 18.4455L19.6388 16.0402C19.6027 16.0247 19.5702 16.0018 19.5435 15.9729C19.5167 15.9441 19.4963 15.91 19.4836 15.8728C19.4709 15.8356 19.4661 15.7961 19.4696 15.7569C19.4731 15.7177 19.4847 15.6797 19.5038 15.6453L20.5051 13.8499C20.5332 13.8002 20.5456 13.7433 20.5406 13.6865C20.5356 13.6296 20.5134 13.5757 20.4771 13.5318C20.4407 13.4878 20.3918 13.456 20.337 13.4405C20.2821 13.425 20.2238 13.4265 20.1698 13.4449L17.9738 14.1727C17.9313 14.1869 17.886 14.1907 17.8417 14.1838C17.7974 14.1769 17.7554 14.1595 17.7192 14.1331C17.6829 14.1067 17.6536 14.072 17.6335 14.0319C17.6134 13.9918 17.6032 13.9476 17.6037 13.9027L17.6734 9.67948C17.6791 9.3791 17.2741 9.28123 17.1402 9.54898L15.6473 12.5494C15.6289 12.5864 15.6025 12.619 15.5701 12.6447C15.5377 12.6704 15.4999 12.6886 15.4597 12.6981C15.4194 12.7075 15.3775 12.708 15.337 12.6994C15.2965 12.6908 15.2584 12.6734 15.2254 12.6484L12.4748 10.5671C12.4276 10.5312 12.3703 10.5112 12.311 10.5098C12.2518 10.5085 12.1936 10.5259 12.1448 10.5596C12.096 10.5933 12.0591 10.6415 12.0394 10.6974C12.0197 10.7533 12.0181 10.814 12.0349 10.8709L13.0778 14.4652C13.0887 14.5027 13.0916 14.5421 13.0865 14.5808C13.0813 14.6195 13.0682 14.6567 13.0478 14.69C13.0275 14.7233 13.0005 14.7521 12.9685 14.7744C12.9364 14.7967 12.9001 14.8121 12.8618 14.8196L9.86255 15.4024C9.804 15.4137 9.75057 15.4433 9.70998 15.487C9.66938 15.5307 9.64373 15.5862 9.63672 15.6454C9.6297 15.7046 9.6417 15.7645 9.67097 15.8165C9.70024 15.8685 9.74527 15.9098 9.79955 15.9345L12.0867 16.9762C12.1287 16.9954 12.1654 17.0246 12.1934 17.0614C12.2215 17.0981 12.24 17.1411 12.2475 17.1867C12.2549 17.2323 12.251 17.2791 12.2361 17.3228C12.2212 17.3665 12.1947 17.4059 12.1609 17.4375Z" fill="#A2131B"/>
</g>
<g filter="url(#filter2_d_9_2033)">
<path d="M14.1064 17.2328L12.4988 18.7313C12.294 18.9225 12.465 19.2645 12.7418 19.2128L15.7725 18.6536C15.8116 18.6464 15.8518 18.6475 15.8904 18.657C15.9291 18.6664 15.9653 18.6839 15.9966 18.7084C16.028 18.7328 16.0538 18.7637 16.0724 18.7988C16.091 18.834 16.1019 18.8727 16.1044 18.9124L16.4036 23.6475C16.4228 23.9614 16.857 24.0266 16.9684 23.733L18.5265 19.6358C18.5426 19.5938 18.5685 19.5564 18.6021 19.5265C18.6356 19.4967 18.6759 19.4753 18.7194 19.4642C18.7629 19.4531 18.8084 19.4525 18.8522 19.4626C18.8959 19.4727 18.9366 19.4931 18.9709 19.5221L20.3153 20.6595C20.3605 20.6975 20.4166 20.7203 20.4756 20.7246C20.5345 20.7289 20.5933 20.7145 20.6436 20.6835C20.6939 20.6525 20.7332 20.6064 20.7558 20.5518C20.7785 20.4972 20.7834 20.4369 20.7698 20.3794L20.322 18.5119C20.3115 18.4689 20.3112 18.424 20.3213 18.3809C20.3313 18.3378 20.3514 18.2976 20.38 18.2638C20.4085 18.2299 20.4446 18.2032 20.4853 18.1859C20.5261 18.1686 20.5703 18.1612 20.6145 18.1643L25.8638 18.5108C26.1158 18.5265 26.199 18.1789 25.9661 18.0788L20.9768 15.9413C20.9408 15.9257 20.9084 15.9028 20.8818 15.8741C20.8552 15.8453 20.8349 15.8113 20.8222 15.7742C20.8095 15.7372 20.8046 15.6978 20.808 15.6588C20.8114 15.6198 20.8229 15.5818 20.8418 15.5475L21.708 13.9894C21.7354 13.94 21.7473 13.8835 21.7421 13.8272C21.737 13.771 21.715 13.7176 21.6791 13.674C21.6431 13.6304 21.5949 13.5987 21.5407 13.5829C21.4865 13.5671 21.4287 13.568 21.375 13.5855L19.4659 14.2178C19.4233 14.232 19.3779 14.2357 19.3335 14.2288C19.2891 14.2218 19.247 14.2044 19.2108 14.1778C19.1745 14.1513 19.1452 14.1164 19.1252 14.0762C19.1052 14.036 19.0951 13.9915 19.0958 13.9466L19.1576 10.2409C19.1621 9.9405 18.7583 9.84263 18.6244 10.1104L17.325 12.7204C17.3066 12.7574 17.2802 12.79 17.2478 12.8157C17.2154 12.8414 17.1777 12.8597 17.1374 12.8691C17.0971 12.8786 17.0552 12.879 17.0147 12.8704C16.9742 12.8618 16.9361 12.8444 16.9031 12.8194L14.4788 10.9856C14.4316 10.9498 14.3742 10.9297 14.315 10.9284C14.2557 10.927 14.1975 10.9444 14.1488 10.9781C14.1 11.0118 14.0631 11.06 14.0434 11.1159C14.0236 11.1718 14.0221 11.2325 14.0389 11.2894L14.9614 14.4686C14.9723 14.5062 14.9752 14.5456 14.97 14.5844C14.9647 14.6231 14.9515 14.6604 14.931 14.6937C14.9106 14.7271 14.8834 14.7558 14.8513 14.7781C14.8191 14.8003 14.7827 14.8156 14.7443 14.823L12.1118 15.3349C12.0533 15.3464 12 15.3762 11.9595 15.4199C11.919 15.4637 11.8935 15.5192 11.8866 15.5784C11.8798 15.6376 11.8919 15.6974 11.9212 15.7493C11.9505 15.8012 11.9956 15.8424 12.0499 15.867L14.031 16.7693C14.073 16.7884 14.1097 16.8177 14.1378 16.8544C14.1658 16.8911 14.1844 16.9342 14.1918 16.9798C14.1993 17.0254 14.1954 17.0721 14.1805 17.1158C14.1656 17.1595 14.1401 17.1989 14.1064 17.2305V17.2328Z" fill="#FFB628"/>
</g>
<g filter="url(#filter3_f_9_2033)">
<path d="M9 3.9375L15.012 8.91225" stroke="url(#paint2_linear_9_2033)" stroke-width="0.25" stroke-linecap="round"/>
</g>
<g filter="url(#filter4_f_9_2033)">
<path d="M19.7002 6.1875L20.1997 9.87975C20.2141 9.98668 20.2514 10.0893 20.3089 10.1805C20.3665 10.2718 20.443 10.3496 20.5332 10.4087C20.6235 10.4678 20.7254 10.5068 20.8321 10.5231C20.9388 10.5394 21.0477 10.5325 21.1514 10.503" stroke="url(#paint3_linear_9_2033)" stroke-width="0.25" stroke-linecap="round"/>
</g>
<g filter="url(#filter5_f_9_2033)">
<path d="M18.7998 10.6875V13.9219C18.7998 14.1739 19.0046 14.3786 19.2577 14.3786" stroke="url(#paint4_linear_9_2033)" stroke-width="0.25" stroke-linecap="round"/>
</g>
<g filter="url(#filter6_f_9_2033)">
<path d="M21.1287 14.3438L20.5268 15.4755C20.4911 15.5427 20.4693 15.6165 20.4629 15.6924C20.4565 15.7682 20.4656 15.8446 20.4896 15.9169C20.5136 15.9891 20.552 16.0558 20.6025 16.1128C20.6529 16.1697 20.7145 16.2159 20.7833 16.2484L24.1876 17.8594" stroke="url(#paint5_linear_9_2033)" stroke-width="0.25" stroke-linecap="round"/>
</g>
<g filter="url(#filter7_f_9_2033)">
<path d="M24.2043 26.262L22.5674 21.9375" stroke="url(#paint6_linear_9_2033)" stroke-opacity="0.6" stroke-width="0.25" stroke-linecap="round"/>
</g>
<g filter="url(#filter8_f_9_2033)">
<path d="M31.6578 19.3612L24.3914 15.3562C24.1644 15.231 23.9796 15.0412 23.8604 14.8109C23.7413 14.5806 23.6931 14.3202 23.722 14.0625" stroke="url(#paint7_linear_9_2033)" stroke-width="0.25" stroke-linecap="round"/>
</g>
<g filter="url(#filter9_f_9_2033)">
<path d="M14.625 11.8125L16.7693 13.5529" stroke="url(#paint8_linear_9_2033)" stroke-width="0.25" stroke-linecap="round"/>
</g>
<g filter="url(#filter10_f_9_2033)">
<path d="M18.3521 19.125L16.875 23.1334" stroke="url(#paint9_linear_9_2033)" stroke-width="0.25" stroke-linecap="round"/>
</g>
<g filter="url(#filter11_f_9_2033)">
<path d="M19.6875 17.7188L20.3029 19.9339" stroke="url(#paint10_linear_9_2033)" stroke-width="0.25" stroke-linecap="round"/>
</g>
<g filter="url(#filter12_f_9_2033)">
<path d="M20.7905 14.4282C20.8861 14.5242 21.1331 14.4332 21.3423 14.225C21.5515 14.0168 21.6436 13.7702 21.548 13.6742C21.4525 13.5782 21.2054 13.6692 20.9963 13.8774C20.7871 14.0856 20.695 14.3322 20.7905 14.4282Z" fill="url(#paint11_linear_9_2033)"/>
</g>
<defs>
<filter id="filter0_d_9_2033" x="2.21641" y="1.35648" width="32.0166" height="33.4122" filterUnits="userSpaceOnUse" color-interpolation-filters="sRGB">
<feFlood flood-opacity="0" result="BackgroundImageFix"/>
<feColorMatrix in="SourceAlpha" type="matrix" values="0 0 0 0 0 0 0 0 0 0 0 0 0 0 0 0 0 0 127 0" result="hardAlpha"/>
<feOffset dx="0.15" dy="0.15"/>
<feGaussianBlur stdDeviation="0.5"/>
<feComposite in2="hardAlpha" operator="out"/>
<feColorMatrix type="matrix" values="0 0 0 0 0.770833 0 0 0 0 0.102778 0 0 0 0 0.344827 0 0 0 1 0"/>
<feBlend mode="normal" in2="BackgroundImageFix" result="effect1_dropShadow_9_2033"/>
<feBlend mode="normal" in="SourceGraphic" in2="effect1_dropShadow_9_2033" result="shape"/>
</filter>
<filter id="filter1_f_9_2033" x="7.63477" y="7.39273" width="19.7588" height="19.5143" filterUnits="userSpaceOnUse" color-interpolation-filters="sRGB">
<feFlood flood-opacity="0" result="BackgroundImageFix"/>
<feBlend mode="normal" in="SourceGraphic" in2="BackgroundImageFix" result="shape"/>
<feGaussianBlur stdDeviation="1" result="effect1_foregroundBlur_9_2033"/>
</filter>
<filter id="filter2_d_9_2033" x="11.6348" y="9.80413" width="15.0188" height="14.7674" filterUnits="userSpaceOnUse" color-interpolation-filters="sRGB">
<feFlood flood-opacity="0" result="BackgroundImageFix"/>
<feColorMatrix in="SourceAlpha" type="matrix" values="0 0 0 0 0 0 0 0 0 0 0 0 0 0 0 0 0 0 127 0" result="hardAlpha"/>
<feOffset dx="0.15" dy="0.25"/>
<feGaussianBlur stdDeviation="0.2"/>
<feComposite in2="hardAlpha" operator="out"/>
<feColorMatrix type="matrix" values="0 0 0 0 0.966667 0 0 0 0 0.507026 0 0 0 0 0 0 0 0 1 0"/>
<feBlend mode="normal" in2="BackgroundImageFix" result="effect1_dropShadow_9_2033"/>
<feBlend mode="normal" in="SourceGraphic" in2="effect1_dropShadow_9_2033" result="shape"/>
</filter>
<filter id="filter3_f_9_2033" x="8.625" y="3.5625" width="6.76172" height="5.72476" filterUnits="userSpaceOnUse" color-interpolation-filters="sRGB">
<feFlood flood-opacity="0" result="BackgroundImageFix"/>
<feBlend mode="normal" in="SourceGraphic" in2="BackgroundImageFix" result="shape"/>
<feGaussianBlur stdDeviation="0.125" result="effect1_foregroundBlur_9_2033"/>
</filter>
<filter id="filter4_f_9_2033" x="19.3252" y="5.8125" width="2.20117" height="5.09421" filterUnits="userSpaceOnUse" color-interpolation-filters="sRGB">
<feFlood flood-opacity="0" result="BackgroundImageFix"/>
<feBlend mode="normal" in="SourceGraphic" in2="BackgroundImageFix" result="shape"/>
<feGaussianBlur stdDeviation="0.125" result="effect1_foregroundBlur_9_2033"/>
</filter>
<filter id="filter5_f_9_2033" x="18.4248" y="10.3125" width="1.20801" height="4.44113" filterUnits="userSpaceOnUse" color-interpolation-filters="sRGB">
<feFlood flood-opacity="0" result="BackgroundImageFix"/>
<feBlend mode="normal" in="SourceGraphic" in2="BackgroundImageFix" result="shape"/>
<feGaussianBlur stdDeviation="0.125" result="effect1_foregroundBlur_9_2033"/>
</filter>
<filter id="filter6_f_9_2033" x="20.0859" y="13.9687" width="4.47656" height="4.26569" filterUnits="userSpaceOnUse" color-interpolation-filters="sRGB">
<feFlood flood-opacity="0" result="BackgroundImageFix"/>
<feBlend mode="normal" in="SourceGraphic" in2="BackgroundImageFix" result="shape"/>
<feGaussianBlur stdDeviation="0.125" result="effect1_foregroundBlur_9_2033"/>
</filter>
<filter id="filter7_f_9_2033" x="22.1924" y="21.5625" width="2.38672" height="5.07455" filterUnits="userSpaceOnUse" color-interpolation-filters="sRGB">
<feFlood flood-opacity="0" result="BackgroundImageFix"/>
<feBlend mode="normal" in="SourceGraphic" in2="BackgroundImageFix" result="shape"/>
<feGaussianBlur stdDeviation="0.125" result="effect1_foregroundBlur_9_2033"/>
</filter>
<filter id="filter8_f_9_2033" x="23.3389" y="13.6875" width="8.69434" height="6.04877" filterUnits="userSpaceOnUse" color-interpolation-filters="sRGB">
<feFlood flood-opacity="0" result="BackgroundImageFix"/>
<feBlend mode="normal" in="SourceGraphic" in2="BackgroundImageFix" result="shape"/>
<feGaussianBlur stdDeviation="0.125" result="effect1_foregroundBlur_9_2033"/>
</filter>
<filter id="filter9_f_9_2033" x="14.25" y="11.4375" width="2.89453" height="2.49039" filterUnits="userSpaceOnUse" color-interpolation-filters="sRGB">
<feFlood flood-opacity="0" result="BackgroundImageFix"/>
<feBlend mode="normal" in="SourceGraphic" in2="BackgroundImageFix" result="shape"/>
<feGaussianBlur stdDeviation="0.125" result="effect1_foregroundBlur_9_2033"/>
</filter>
<filter id="filter10_f_9_2033" x="16.5" y="18.75" width="2.22754" height="4.75845" filterUnits="userSpaceOnUse" color-interpolation-filters="sRGB">
<feFlood flood-opacity="0" result="BackgroundImageFix"/>
<feBlend mode="normal" in="SourceGraphic" in2="BackgroundImageFix" result="shape"/>
<feGaussianBlur stdDeviation="0.125" result="effect1_foregroundBlur_9_2033"/>
</filter>
<filter id="filter11_f_9_2033" x="19.3125" y="17.3437" width="1.36523" height="2.96518" filterUnits="userSpaceOnUse" color-interpolation-filters="sRGB">
<feFlood flood-opacity="0" result="BackgroundImageFix"/>
<feBlend mode="normal" in="SourceGraphic" in2="BackgroundImageFix" result="shape"/>
<feGaussianBlur stdDeviation="0.125" result="effect1_foregroundBlur_9_2033"/>
</filter>
<filter id="filter12_f_9_2033" x="20.6529" y="13.536" width="1.03301" height="1.03044" filterUnits="userSpaceOnUse" color-interpolation-filters="sRGB">
<feFlood flood-opacity="0" result="BackgroundImageFix"/>
<feBlend mode="normal" in="SourceGraphic" in2="BackgroundImageFix" result="shape"/>
<feGaussianBlur stdDeviation="0.05" result="effect1_foregroundBlur_9_2033"/>
</filter>
<linearGradient id="paint0_linear_9_2033" x1="21.3222" y1="32.4664" x2="18.0091" y2="-2.12739" gradientUnits="userSpaceOnUse">
<stop stop-color="#E81123"/>
<stop offset="0.372" stop-color="#EA0A4F"/>
<stop offset="0.807" stop-color="#EC008C"/>
</linearGradient>
<linearGradient id="paint1_linear_9_2033" x1="21.3582" y1="13.9286" x2="22.2188" y2="-9.94276" gradientUnits="userSpaceOnUse">
<stop offset="0.297" stop-color="#A11749" stop-opacity="0"/>
<stop offset="0.774" stop-color="#A21749"/>
<stop offset="0.818" stop-color="#A21749"/>
</linearGradient>
<linearGradient id="paint2_linear_9_2033" x1="15.3281" y1="9.29925" x2="10.5334" y2="6.894" gradientUnits="userSpaceOnUse">
<stop stop-color="#FF5696"/>
<stop offset="1" stop-color="#FF5696" stop-opacity="0"/>
</linearGradient>
<linearGradient id="paint3_linear_9_2033" x1="18.9971" y1="10.4771" x2="16.0068" y2="5.94337" gradientUnits="userSpaceOnUse">
<stop stop-color="#FF5696"/>
<stop offset="1" stop-color="#FF5696" stop-opacity="0"/>
</linearGradient>
<linearGradient id="paint4_linear_9_2033" x1="18.9404" y1="11.9003" x2="19.0293" y2="9.49275" gradientUnits="userSpaceOnUse">
<stop stop-color="#FFD530"/>
<stop offset="1" stop-color="#FFD530" stop-opacity="0"/>
</linearGradient>
<linearGradient id="paint5_linear_9_2033" x1="24.5915" y1="17.244" x2="18.1936" y2="13.131" gradientUnits="userSpaceOnUse">
<stop stop-color="#FFD530" stop-opacity="0"/>
<stop offset="0.412" stop-color="#FFD530"/>
<stop offset="1" stop-color="#FFD530" stop-opacity="0"/>
</linearGradient>
<linearGradient id="paint6_linear_9_2033" x1="22.5685" y1="22.0601" x2="28.567" y2="29.2747" gradientUnits="userSpaceOnUse">
<stop offset="0.167" stop-color="#FF5C7A"/>
<stop offset="0.75" stop-color="#FF5C7A" stop-opacity="0"/>
</linearGradient>
<linearGradient id="paint7_linear_9_2033" x1="24.5219" y1="15.8467" x2="33.433" y2="17.2316" gradientUnits="userSpaceOnUse">
<stop stop-color="#FF3E87"/>
<stop offset="1" stop-color="#FF3E87" stop-opacity="0"/>
</linearGradient>
<linearGradient id="paint8_linear_9_2033" x1="16.7344" y1="14.1682" x2="14.7476" y2="12.1995" gradientUnits="userSpaceOnUse">
<stop stop-color="#FFD530"/>
<stop offset="1" stop-color="#FFD530" stop-opacity="0"/>
</linearGradient>
<linearGradient id="paint9_linear_9_2033" x1="17.8942" y1="22.3414" x2="19.3185" y2="18.7909" gradientUnits="userSpaceOnUse">
<stop stop-color="#FFD530"/>
<stop offset="1" stop-color="#FFD530" stop-opacity="0"/>
</linearGradient>
<linearGradient id="paint10_linear_9_2033" x1="20.8654" y1="19.8101" x2="19.89" y2="16.2427" gradientUnits="userSpaceOnUse">
<stop stop-color="#FFD530"/>
<stop offset="1" stop-color="#FFD530" stop-opacity="0"/>
</linearGradient>
<linearGradient id="paint11_linear_9_2033" x1="21.548" y1="13.6742" x2="20.7583" y2="14.2571" gradientUnits="userSpaceOnUse">
<stop stop-color="#FFD530"/>
<stop offset="1" stop-color="#FFD530" stop-opacity="0"/>
</linearGradient>
</defs>
</svg>
