<svg width="350" height="206" viewBox="0 0 350 206" fill="none" xmlns="http://www.w3.org/2000/svg">
<rect width="350" height="205.078" rx="20" fill="white"/>
<path d="M349.003 199.364C349.642 200.009 350 200.88 350 201.787C350 203.688 348.459 205.229 346.558 205.229H222.098C204.319 205.229 195.378 183.767 207.899 171.144L212.097 166.912L250.258 128.413C258.082 120.519 270.841 120.519 278.666 128.412L349.003 199.364Z" fill="#ECECEC"/>
<path d="M20 205.229C8.95429 205.229 0 196.275 0 185.229V180.603C0 175.297 2.10843 170.208 5.86119 166.457L94.2737 78.0862C102.084 70.2798 114.743 70.2802 122.552 78.087L215.583 171.085C228.186 183.683 219.263 205.229 201.443 205.229H20Z" fill="#ECECEC"/>
<path d="M277.977 65.6073C288.88 54.7039 288.88 37.026 277.977 26.1226C267.074 15.2192 249.396 15.2192 238.492 26.1226C227.589 37.026 227.589 54.7039 238.492 65.6073C249.396 76.5107 267.074 76.5107 277.977 65.6073Z" fill="#ECECEC"/>
</svg>
