<svg width="341" height="293" viewBox="0 0 341 293" fill="none" xmlns="http://www.w3.org/2000/svg">
<rect x="12.2092" y="19.5632" width="312.228" height="235.118" transform="rotate(-1.76125 12.2092 19.5632)" stroke="#FFE815" stroke-width="2"/>
<circle cx="323.788" cy="10.7863" r="8.5" transform="rotate(-1.76125 323.788 10.7863)" fill="white" stroke="#FFE815" stroke-width="2"/>
<circle cx="10.7875" cy="20.7874" r="8.5" transform="rotate(-1.76125 10.7875 20.7874)" fill="white" stroke="#FFE815" stroke-width="2"/>
<circle cx="330.788" cy="244.786" r="8.5" transform="rotate(-1.76125 330.788 244.786)" fill="white" stroke="#FFE815" stroke-width="2"/>
<circle cx="20.7875" cy="255.788" r="8.5" transform="rotate(-1.76125 20.7875 255.788)" fill="white" stroke="#FFE815" stroke-width="2"/>
<path d="M51.0671 271.371C52.9233 272.124 52.7814 274.799 50.8559 275.353L41.1341 278.148L36.6941 287.236C35.8154 289.036 33.156 288.711 32.7351 286.752L28.2103 265.646C28.1295 265.271 28.1524 264.881 28.2767 264.518C28.401 264.155 28.622 263.833 28.9158 263.586C29.2096 263.339 29.5651 263.177 29.9442 263.117C30.3232 263.057 30.7115 263.102 31.0671 263.246L51.0671 271.371Z" fill="#222831" stroke="#FDE618" stroke-width="2"/>
</svg>
