<svg width="77" height="92" viewBox="0 0 77 92" fill="none" xmlns="http://www.w3.org/2000/svg">
<g clip-path="url(#clip0_4_87)">
<path d="M23.0913 33.1612C24.7432 26.7299 26.9933 21.0349 33.3666 18.1072C33.5574 18.0163 33.8696 17.908 33.8956 17.7738C34.2945 15.3528 36.1588 13.3173 35.5605 10.5976C35.1269 8.69632 35.1269 6.69981 36.9522 5.28795C38.0057 4.46942 37.4161 3.28277 37.5331 2.25637C37.6329 1.3902 37.286 -0.0259864 38.4003 -0.00433219C39.5145 0.017322 39.2414 1.4465 39.1677 2.29967C39.0675 3.01253 39.1498 3.7391 39.4068 4.41159C39.6639 5.08409 40.0872 5.6806 40.6374 6.14546C41.769 7.19352 41.4525 8.83491 41.4092 10.1905C41.336 11.9559 41.5513 13.7215 42.0465 15.4178C42.7012 17.7175 44.2923 18.3584 45.8401 19.4498C50.5096 22.7412 52.3435 27.6784 53.6745 33.1352C43.4686 29.0989 33.3927 29.0816 23.0913 33.1612ZM38.3786 9.91329C37.8106 11.1909 37.9797 12.5118 38.0924 13.8457C38.0924 13.928 38.3352 14.0666 38.4523 14.0492C38.5693 14.0319 38.7558 13.863 38.7558 13.7634C38.6994 12.4815 39.0246 11.1649 38.3742 9.91329H38.3786ZM39.9437 9.91329C39.2544 11.0913 39.5839 12.3732 39.5449 13.6162C39.5643 13.7125 39.6073 13.8024 39.6701 13.878C39.7329 13.9536 39.8135 14.0125 39.9047 14.0492C40.2299 14.0925 40.3383 13.811 40.3383 13.5252C40.2776 12.3299 40.5507 11.0999 39.9394 9.90029L39.9437 9.91329ZM37.0129 9.91329H36.4969C36.4969 11.1562 36.4969 12.3949 36.4969 13.6378C36.4969 13.8457 36.549 14.0709 36.8438 14.0709C37.1386 14.0709 37.195 13.8414 37.1863 13.6378C37.1429 12.3949 37.4248 11.1303 37.0085 9.92195L37.0129 9.91329Z" fill="#222831"/>
<path d="M39.0636 38.172C39.0636 37.2019 39.0896 36.2318 39.0636 35.2574C39.0636 34.703 39.1937 33.8455 38.3656 33.8888C37.5375 33.9321 37.8106 34.7983 37.802 35.331C37.7673 37.2755 37.7023 39.2287 37.802 41.1603C37.8843 42.5288 37.0563 42.4032 36.1761 42.4855C35.0099 42.5981 35.1703 41.8186 35.1703 41.13C35.1703 39.4539 35.1703 37.7822 35.1703 36.1105C35.1703 35.6255 35.1703 35.0321 34.5069 35.0192C33.8436 35.0062 33.9043 35.6515 33.9 36.1019C33.9 37.8862 33.8219 39.6705 33.9 41.4461C33.965 42.7887 33.0675 42.7107 32.2177 42.8277C30.9821 42.9922 31.2943 42.0871 31.2813 41.4591C31.2466 39.9996 31.2813 38.5445 31.2466 37.085C31.2466 36.5913 31.0992 36.0326 30.4445 36.1062C29.8722 36.1712 29.9329 36.7255 29.9286 37.1413C29.9286 38.761 29.8505 40.3807 29.9286 41.9961C30.0066 43.6115 28.7666 43.3257 27.9429 43.4383C26.7896 43.5985 27.2535 42.5721 27.2231 42.0611C27.1494 40.7619 27.2231 39.4626 27.1885 38.1633C27.1885 37.7736 27.1321 37.3275 26.6639 37.2972C26.1219 37.2409 25.9095 37.6913 25.8965 38.1633C25.8141 39.5639 25.8141 40.9681 25.8965 42.3686C26.0222 43.7112 25.4195 44.1572 24.2359 44.3694C23.4945 44.4994 23.2431 44.3435 23.2561 43.6115C23.2778 42.2603 23.2561 40.9091 23.2561 39.5622C23.2561 39.1291 23.3818 38.4449 22.6881 38.4275C21.9034 38.4059 21.9858 39.0988 21.9814 39.6272C21.9814 41.0823 21.9814 42.5418 21.9814 43.997C21.9814 44.8632 20.49 45.9848 19.7486 45.7553C19.2327 45.5951 19.3931 45.1447 19.3931 44.8025C19.4191 43.2982 19.2736 41.7959 18.9595 40.3244C18.526 38.5921 19.6662 37.3578 20.9626 36.3877C23.3948 34.5731 26.2433 33.7546 29.1395 33.0313C37.0555 31.0252 45.409 31.6329 52.9505 34.7636C54.1642 35.2258 55.288 35.8955 56.2716 36.7428C57.7327 38.0421 58.4394 39.5752 57.6026 41.5068C57.1994 42.4509 57.4595 43.4296 57.3381 44.3824C57.2731 44.8632 57.7327 45.8419 56.7918 45.6817C56.0374 45.5518 54.7931 45.5951 54.7584 44.2742C54.7194 42.819 54.7585 41.3595 54.7324 39.9043C54.7324 39.3673 55.0056 38.4838 54.1558 38.4708C53.1803 38.4708 53.5011 39.3976 53.4751 39.978C53.4274 41.0044 53.5141 42.0351 53.4404 43.0529C53.4058 43.5293 53.874 44.495 52.9072 44.3738C52.1137 44.2742 50.7871 44.5124 50.8434 42.9403C50.8954 41.4851 50.8434 40.0256 50.8434 38.5704C50.8434 38.0594 50.9735 37.3448 50.1801 37.3405C49.3867 37.3362 49.5384 38.0594 49.5297 38.5661C49.5081 39.8091 49.5297 41.052 49.5081 42.2906C49.5081 42.7887 49.8246 43.7112 48.7884 43.4773C48.086 43.3214 46.8894 43.7241 46.9154 42.295C46.9414 40.7835 46.9457 39.2634 46.9154 37.7606C46.9154 37.1759 47.2362 36.2318 46.2997 36.1928C45.3632 36.1538 45.632 37.1066 45.6147 37.687C45.5713 39.0338 45.6147 40.3851 45.6147 41.732C45.6147 42.3253 45.7101 43.0312 44.7476 42.8623C44.0279 42.7367 42.9917 43.0702 43.0133 41.7536C43.0133 39.9751 43.0133 38.1937 43.0133 36.4094C43.0133 35.8463 43.1521 35.0322 42.285 35.0755C41.5132 35.1101 41.756 35.8853 41.7474 36.3747C41.717 37.8862 41.7474 39.4063 41.7474 40.9091C41.7474 41.6323 42.1116 42.5591 40.6808 42.5548C39.3281 42.5548 39.0246 41.9875 39.1373 40.8225C39.133 39.9087 39.0636 39.0382 39.0636 38.172Z" fill="#63717E"/>
<path d="M54.7411 55.7292C52.0184 54.9497 52.0184 54.9497 52.0184 52.4681V50.8484C52.0184 50.2334 51.975 49.5188 51.2033 49.5275C50.5009 49.5275 50.5269 50.2291 50.5269 50.7791C50.5269 51.589 50.4792 52.4032 50.5269 53.2087C50.6006 54.1788 50.2018 54.0749 49.4907 53.854C48.125 53.4512 47.3489 52.7756 47.6568 51.2208C47.7262 50.631 47.7262 50.035 47.6568 49.4452C47.6351 48.9125 47.6568 48.2585 46.872 48.3062C46.2044 48.3495 46.2304 48.9125 46.2304 49.4062V52.2992C43.3689 51.7882 43.3559 51.7665 43.3515 49.1897C43.3515 48.8649 43.3515 48.54 43.3515 48.2152C43.3255 47.6955 43.4426 47.0199 42.6188 47.0546C41.7951 47.0892 42.0162 47.7821 41.9685 48.2845C41.9881 48.4456 41.9881 48.6085 41.9685 48.7696C41.7517 49.3759 42.5364 50.424 41.4222 50.5799C40.308 50.7358 39.1157 49.6054 39.0983 48.5617C39.0983 47.9164 39.0983 47.2624 39.0983 46.6215C39.0983 46.1234 38.8859 45.777 38.3396 45.7813C37.7933 45.7856 37.7413 46.1581 37.6936 46.5522C37.6755 46.7668 37.6682 46.9822 37.6719 47.1975C37.5895 49.796 37.5895 49.796 34.8234 50.5972C34.8234 49.6531 34.8234 48.7523 34.8234 47.8558C34.8361 47.7614 34.8297 47.6654 34.8045 47.5736C34.7793 47.4818 34.7359 47.3959 34.6769 47.3212C34.6178 47.2465 34.5443 47.1843 34.4608 47.1385C34.3772 47.0927 34.2853 47.0642 34.1904 47.0546C33.6485 46.9896 33.3927 47.3491 33.3667 47.8255C33.3277 48.6916 33.3277 49.5578 33.3667 50.424C33.4063 50.6592 33.367 50.901 33.2549 51.1117C33.1427 51.3224 32.9641 51.4901 32.7467 51.589C30.7046 52.6413 30.5225 52.5461 30.5182 50.2031C30.5182 49.9302 30.5182 49.6617 30.5182 49.3932C30.5182 48.9168 30.5659 48.3235 29.8679 48.3148C29.1698 48.3062 29.0831 48.9038 29.0875 49.4712C29.0875 50.3373 29.0875 51.2035 29.0875 52.0697C29.0875 52.5677 29.0614 52.9358 28.4978 53.2477C26.5251 54.2784 26.3647 54.1701 26.278 51.9484C26.2433 51.0822 26.8199 49.5794 25.4759 49.6011C24.3183 49.6228 24.8646 51.0996 24.8429 51.9224C24.7779 54.8241 24.7432 54.9237 22.8572 55.4174C22.2069 55.582 21.9598 55.4607 21.9901 54.7721C22.0205 53.906 21.9901 53.0398 21.9901 52.1736C21.9901 51.5976 22.1202 50.7878 21.3138 50.7704C20.3859 50.7444 20.5333 51.6366 20.516 52.2343C20.4857 53.2044 20.4683 54.1788 20.516 55.1489C20.555 55.9285 20.2645 56.2533 19.4885 56.145C19.3816 56.1515 19.2745 56.1515 19.1676 56.145C18.1011 55.8895 16.4232 56.8639 16.033 55.569C15.4 53.4729 14.4895 51.0909 17.0562 49.3196C20.0217 47.2754 23.3905 46.392 26.8199 45.6211C35.9237 43.5864 45.4029 43.9777 54.3076 46.7557C56.2438 47.267 58.0662 48.1382 59.6793 49.3239C61.4439 50.7228 61.3876 51.8142 61.1925 53.9796C60.9714 56.4438 59.6013 56.0627 58.0058 56.145C56.497 56.2316 56.0678 55.7119 56.3019 54.3347C56.3128 54.2818 56.3128 54.2273 56.3019 54.1745C55.9551 53.0484 57.0997 50.9567 55.4912 50.9263C54.0734 50.9004 55.0056 52.9878 54.7715 54.1095C54.7061 54.647 54.696 55.1897 54.7411 55.7292Z" fill="#222831"/>
<path d="M38.3049 60.9262C30.0673 60.9262 21.8773 60.8656 13.6657 60.9739C11.8361 60.9999 12.0616 59.9864 11.9315 58.8561C11.7754 57.4832 12.5038 57.336 13.566 57.4442C18.6343 57.9596 23.3818 56.9159 27.9818 54.7548C30.904 53.3819 34.017 52.4161 37.0129 51.1905C37.3991 51.016 37.8181 50.9258 38.242 50.9258C38.6659 50.9258 39.0849 51.016 39.4712 51.1905C43.7764 52.9228 48.1423 54.5166 52.4129 56.3139C54.2859 57.144 56.3277 57.5238 58.3743 57.4226C59.7747 57.3446 61.1838 57.4226 62.5885 57.4226C64.6652 57.4226 65.3416 58.3754 64.7563 60.3805C64.4918 61.2467 63.7938 60.9306 63.2779 60.9349C57.0606 60.9565 50.8477 60.9349 44.6348 60.9349L38.3049 60.9262ZM28.7276 57.6391L28.8186 58.0462C35.1269 57.7517 41.4395 57.8297 47.7738 57.6651C44.9036 56.4135 42.0118 55.3048 39.1026 54.2004C38.9348 54.1195 38.7525 54.0728 38.5664 54.0631C38.3802 54.0535 38.1941 54.081 38.0187 54.1441C34.9405 55.3135 31.8319 56.4698 28.7276 57.6391Z" fill="#63717E"/>
<path d="M5.46284 88.7995C6.32996 86.6947 7.12771 84.9797 7.76504 83.2084C8.26363 81.8182 9.34319 82.3422 10.206 82.3422C11.3246 82.3422 10.826 83.2864 10.839 83.8104C10.8953 86.0754 10.839 88.3448 10.8823 90.6098C10.8823 91.502 10.6699 91.8398 9.72039 91.8181C8.85327 91.8181 8.41971 91.6622 8.50642 90.6791C8.59313 89.696 8.50642 88.6436 8.50642 87.2144C7.4312 88.479 7.20574 89.7003 6.72883 90.7744C6.43835 91.4197 6.20423 91.8354 5.37179 91.8268C4.53936 91.8181 4.37027 91.3937 4.14049 90.822C3.70997 89.6141 3.12721 88.4658 2.40625 87.405C2.40625 88.5223 2.34122 89.644 2.40625 90.7527C2.47129 91.8614 1.8513 91.7618 1.10558 91.8181C0.20811 91.8787 0.013008 91.5193 0.0260147 90.7051C0.0693706 88.3837 0.0260155 86.0624 0.0607002 83.7411C0.0607002 83.256 -0.372859 82.3596 0.598312 82.3552C1.46543 82.3552 2.558 81.7662 3.07393 83.1434C3.78497 84.9537 4.58272 86.7294 5.46284 88.7995Z" fill="#222831"/>
<path d="M26.2606 68.293C26.2303 71.134 24.1405 73.1349 21.266 73.0569C20.6304 73.0532 20.002 72.9225 19.4177 72.6727C18.8334 72.4229 18.305 72.0589 17.8635 71.6021C17.422 71.1454 17.0764 70.6051 16.8469 70.013C16.6174 69.421 16.5087 68.789 16.5272 68.1544C16.5353 66.8725 17.0519 65.6461 17.9638 64.7442C18.8757 63.8422 20.1084 63.3382 21.3918 63.3429C22.0424 63.3288 22.689 63.4478 23.2919 63.6927C23.8947 63.9376 24.441 64.3032 24.8971 64.7669C25.3532 65.2306 25.7094 65.7827 25.9439 66.3891C26.1784 66.9955 26.2862 67.6434 26.2606 68.293ZM18.9508 68.2194C18.9508 69.8868 19.9437 70.9825 21.4438 70.9651C22.9439 70.9478 23.9107 69.8305 23.8847 68.1674C23.8847 66.5693 22.9352 65.5689 21.4655 65.5343C19.9133 65.5083 18.9552 66.5347 18.9508 68.2194Z" fill="#222831"/>
<path d="M68.667 68.2237C68.6946 68.8732 68.5858 69.5213 68.3477 70.1263C68.1096 70.7314 67.7473 71.2799 67.2843 71.7367C66.8212 72.1936 66.2676 72.5486 65.659 72.7789C65.0504 73.0093 64.4003 73.1099 63.7505 73.0742C63.1143 73.0801 62.4833 72.9587 61.8948 72.7173C61.3063 72.4759 60.7721 72.1193 60.3236 71.6685C59.8752 71.2177 59.5216 70.6819 59.2836 70.0925C59.0456 69.5031 58.9281 68.8721 58.938 68.2367C58.9314 67.5871 59.0557 66.9427 59.3034 66.342C59.5511 65.7414 59.9172 65.1965 60.3799 64.74C60.8426 64.2835 61.3924 63.9245 61.9968 63.6845C62.6012 63.4445 63.2477 63.3283 63.8979 63.3428C64.5351 63.339 65.1667 63.4636 65.7547 63.709C66.3427 63.9545 66.8752 64.3157 67.3204 64.7713C67.7655 65.2269 68.1142 65.7674 68.3455 66.3606C68.5769 66.9537 68.6862 67.5874 68.667 68.2237ZM66.3345 68.2237C66.3345 66.5953 65.3026 65.5256 63.7721 65.5472C62.2417 65.5689 61.3789 66.5693 61.3485 68.176C61.3182 69.7828 62.324 70.9608 63.8068 70.9694C65.2896 70.9781 66.3431 69.8391 66.3345 68.215V68.2237Z" fill="#222831"/>
<path d="M61.3008 91.5843C57.9451 92.7969 57.9364 89.6224 56.3149 88.0633C56.3149 89.0724 56.2672 89.7956 56.3149 90.5189C56.3886 91.424 56.2195 91.8398 55.1269 91.8484C53.9607 91.8484 53.9737 91.2941 53.9867 90.4669C54.0127 88.0936 54.0214 85.703 53.9867 83.3427C53.9867 82.5891 54.1818 82.2643 54.9839 82.3119C56.1155 82.3769 57.2514 82.3119 58.383 82.3812C59.753 82.4722 60.7719 83.1781 61.1144 84.5207C61.4352 85.7766 61.071 86.9286 59.8701 87.5522C59.172 87.9247 59.2588 88.2365 59.6056 88.7735C60.1909 89.6873 60.7155 90.6271 61.3008 91.5843ZM57.2861 86.2963C58.1228 86.3439 58.8252 86.1664 58.8425 85.2482C58.8425 84.2608 58.1315 84.0962 57.2904 84.0183C56.2889 83.9317 56.3149 84.4947 56.2975 85.2006C56.2759 85.9931 56.3929 86.5128 57.2861 86.2963Z" fill="#222831"/>
<path d="M36.3105 91.7575C34.9882 91.7575 33.8263 92.2339 33.3017 90.5275C33.0459 89.696 30.0066 90.1421 29.6598 91.0645C29.2002 92.2902 28.1727 91.8787 27.492 91.7315C26.5728 91.5323 27.2969 90.7917 27.4356 90.3586C28.1943 88.0113 29.0831 85.703 29.7985 83.347C30.115 82.2989 30.7567 82.2513 31.6151 82.2686C32.4736 82.2859 33.0979 82.2686 33.4317 83.334C34.2685 86.0971 35.2874 88.8082 36.3105 91.7575ZM31.5197 85.4301C31.2379 86.227 30.9864 86.9069 30.761 87.5955C30.6656 87.89 30.5225 88.3058 30.9604 88.3881C31.4274 88.4917 31.9126 88.4799 32.3738 88.3534C32.8074 88.2192 32.5212 87.8164 32.4129 87.5392C32.1571 86.8766 32.1094 86.1057 31.5197 85.4301Z" fill="#222831"/>
<path d="M58.1316 66.4827C56.9089 66.5303 55.799 66.6689 54.6631 65.7854C53.757 65.0882 52.517 65.4606 51.8276 66.4784C51.4299 67.0005 51.2211 67.642 51.2353 68.2979C51.2494 68.9539 51.4858 69.5857 51.9057 70.0903C52.6514 71.0387 53.887 71.3895 54.7888 70.6186C55.8727 69.7135 56.9566 69.93 58.1055 69.9387C57.4465 72.2254 55.5302 73.3427 52.9592 73.0179C51.8219 72.8303 50.7883 72.2453 50.0425 71.3672C49.2968 70.4892 48.8875 69.3752 48.8875 68.2237C48.8875 67.0722 49.2968 65.9582 50.0425 65.0801C50.7883 64.2021 51.8219 63.6171 52.9592 63.4294C54.047 63.2055 55.1793 63.3942 56.1355 63.9586C57.0917 64.523 57.8032 65.4228 58.1316 66.4827Z" fill="#222831"/>
<path d="M65.8836 91.8657C65.4081 91.8929 64.9323 91.8189 64.4876 91.6487C64.0429 91.4785 63.6394 91.2159 63.3039 90.8783C62.814 90.3673 62.2417 89.4881 62.7619 89.094C63.111 88.8464 63.537 88.7308 63.9635 88.7681C64.3901 88.8054 64.7894 88.9931 65.0901 89.2976C65.1985 89.4102 65.2462 89.5921 65.3676 89.6873C65.9616 90.1464 66.6033 90.2373 67.0412 89.5574C67.4791 88.8775 67.0412 88.4184 66.4342 88.1629C65.7405 87.877 65.0078 87.6822 64.3011 87.4266C63.2389 87.0412 62.5668 86.3136 62.5668 85.1529C62.5387 84.6078 62.6814 84.0674 62.9752 83.6071C63.2689 83.1468 63.6991 82.7894 64.2057 82.5848C64.8858 82.2332 65.6492 82.0739 66.4133 82.1243C67.1775 82.1747 67.9133 82.4327 68.5413 82.8706C69.2176 83.3297 69.907 84.2305 69.339 84.8498C68.9055 85.3175 67.7479 85.3262 66.9848 84.7155C66.9134 84.6344 66.8509 84.5458 66.7984 84.4513C66.6788 84.2682 66.4996 84.132 66.291 84.0657C66.0824 83.9994 65.8573 84.0071 65.6538 84.0876C65.4959 84.1319 65.3564 84.2257 65.2557 84.3551C65.155 84.4845 65.0985 84.6427 65.0945 84.8065C65.071 85.0508 65.1341 85.2956 65.2727 85.4982C65.4114 85.7008 65.6168 85.8483 65.8532 85.9152C66.2521 86.0754 66.6726 86.1837 67.0845 86.3093C69.1916 86.9589 69.9026 87.8121 69.6859 89.4058C69.4041 90.874 68.0037 91.8571 65.8836 91.8657Z" fill="#222831"/>
<path d="M41.2184 88.8948C41.8254 87.0152 42.4931 85.1486 43.0264 83.2647C43.4599 81.8009 44.5178 82.3682 45.3806 82.3985C45.8575 82.3985 45.6451 82.9053 45.5497 83.1694C44.6089 85.8589 43.629 88.5397 42.6925 91.2335C42.4021 92.0736 41.73 91.8268 41.2098 91.7791C40.5941 91.7228 39.7617 92.2512 39.3975 91.2681C39.3195 91.0689 39.2284 90.874 39.1547 90.6704C38.2009 87.9478 37.2456 85.2251 36.2889 82.5025C38.0881 81.8962 38.9596 82.5025 39.3498 84.2348C39.7097 85.8416 40.3426 87.3877 40.8586 88.9598L41.2184 88.8948Z" fill="#222831"/>
<path d="M8.83157 68.2843C8.88581 67.2064 8.87713 66.1261 8.80555 65.0492C8.64514 63.6936 9.23911 63.3861 10.4357 63.5074C11.3982 63.6027 12.3824 63.5074 13.3492 63.5984C14.0572 63.6426 14.7245 63.944 15.2252 64.4458C15.726 64.9477 16.0256 65.6152 16.0677 66.3225C16.1154 67.7646 15.1442 68.8733 13.5443 69.2025C13.4936 69.2184 13.4413 69.2286 13.3883 69.2328C11.2638 68.9599 10.891 70.1466 11.1771 71.8789C11.3332 72.8447 10.8563 73.0223 9.9805 73.0396C9.10471 73.0569 8.75786 72.7581 8.81422 71.8486C8.88359 70.6663 8.83157 69.4753 8.83157 68.2843ZM12.0009 65.2527C11.0514 65.0015 11.2118 65.7594 11.1684 66.4134C11.1164 67.1756 11.2725 67.6044 12.1916 67.5351C12.9677 67.4788 13.6484 67.3359 13.6657 66.4524C13.6874 65.5083 12.9894 65.2311 12.0009 65.2614V65.2527Z" fill="#222831"/>
<path d="M12.5342 87.392C12.5901 86.2 12.5814 85.0058 12.5082 83.8147C12.3477 82.4635 12.9417 82.1647 14.134 82.2643C15.2099 82.3227 16.2881 82.3227 17.364 82.2643C17.9883 82.2643 18.3612 82.3595 18.3612 83.1304C18.3612 83.9013 18.0881 84.0789 17.4117 84.0269C16.8784 83.9879 16.3321 84.0486 15.7989 84.0269C15.1355 83.9836 14.8147 84.1872 14.845 84.9191C14.871 85.5644 14.845 86.1144 15.7512 86.0408C16.1847 86.0104 16.6183 86.0667 17.0518 86.0408C17.7889 85.9888 17.9623 86.3742 17.958 87.0239C17.9536 87.6735 17.7065 87.89 17.0909 87.89C16.6573 87.864 16.2238 87.9203 15.7902 87.89C14.9491 87.8121 14.845 88.2711 14.845 88.9641C14.845 89.657 15.0141 90.1074 15.8249 90.0641C16.3105 90.0381 16.796 90.0901 17.2816 90.0641C17.9667 90.0251 18.3742 90.1464 18.3655 91.0082C18.3569 91.8701 17.932 91.8744 17.3553 91.8354C15.8075 91.7488 13.7915 92.4807 12.8333 91.5669C11.8752 90.6531 12.6859 88.5786 12.5342 87.392Z" fill="#222831"/>
<path d="M46.5946 87.0932C46.5946 85.7939 46.6249 84.4947 46.5946 83.1954C46.5685 82.4981 46.8113 82.234 47.5094 82.2556C48.8577 82.2903 50.2061 82.2946 51.5501 82.2556C52.3045 82.234 52.4172 82.5978 52.4172 83.2387C52.4172 83.8797 52.0921 84.0443 51.5241 84.0226C50.9561 84.0009 50.4445 84.0572 49.9113 84.0226C49.1395 83.9533 48.8967 84.2521 48.8967 85.023C48.8967 85.7939 49.1525 86.1101 49.9243 86.0408C50.3578 86.0061 50.7914 86.0408 51.225 86.0408C51.9056 86.0105 52.0097 86.4176 52.014 86.9719C52.0184 87.5262 51.8666 87.903 51.1989 87.8684C50.7177 87.8684 50.2321 87.89 49.7465 87.8684C49.1222 87.8381 48.8794 88.1066 48.9271 88.7346C48.9791 89.2889 48.7493 89.9992 49.6815 90.0338C50.3275 90.0555 50.9822 90.0728 51.6195 90.0338C52.2568 89.9948 52.4216 90.3413 52.4216 90.926C52.4216 91.5106 52.3132 91.8268 51.6325 91.7921C50.2321 91.7531 48.8317 91.7445 47.4313 91.7921C46.6336 91.8181 46.5642 91.385 46.5946 90.783C46.6119 89.5661 46.5946 88.3275 46.5946 87.0932Z" fill="#222831"/>
<path d="M71.2163 86.9892V86.6644C71.2163 81.7402 71.2163 81.7576 76.1242 82.2643C76.8613 82.3422 76.9913 82.6324 76.9913 83.2777C76.9913 83.923 76.6055 84.0529 76.0635 84.0356C75.5216 84.0183 75.088 84.0702 74.6068 84.0356C73.809 83.9576 73.4925 84.1872 73.4665 85.0793C73.4361 86.1101 73.9954 86.0797 74.6805 86.0494C74.8409 86.0494 75.0056 86.0494 75.166 86.0494C75.8641 86.0494 76.5794 85.8805 76.5491 87.0325C76.5187 88.1845 75.7774 87.7558 75.2094 87.8987C74.6414 88.0416 73.5836 87.2491 73.4968 88.6393C73.4361 89.5747 73.5532 90.233 74.7498 90.0598C75.288 90.0165 75.8288 90.0165 76.367 90.0598C76.9913 90.0598 76.9696 90.5275 76.9827 90.9779C76.9957 91.4283 76.9046 91.8181 76.2976 91.8138C74.8409 91.8138 73.3841 91.7835 71.923 91.8138C71.1816 91.8354 71.1903 91.3807 71.1946 90.8783C71.2163 89.5791 71.2163 88.2841 71.2163 86.9892Z" fill="#222831"/>
<path d="M39.5146 69.1072C39.5146 68.5658 39.4799 68.0245 39.5146 67.4875C39.6316 66.0929 39.662 64.8283 37.6156 65.2398C37.0389 65.3567 36.9175 64.9409 36.9132 64.4342C36.9089 63.9275 37.0216 63.5118 37.7023 63.5161C39.7024 63.5421 41.7026 63.5421 43.7027 63.5161C44.4008 63.5161 44.4745 63.8799 44.4875 64.4342C44.4875 65.0839 44.2143 65.361 43.6204 65.2484C41.9512 64.9236 41.7951 65.8547 41.8601 67.167C41.9425 68.7824 41.8298 70.4065 41.8991 72.0262C41.9381 73.005 41.4179 73.0223 40.6938 73.0223C39.9698 73.0223 39.4192 73.0223 39.4972 72.0219C39.5752 71.0214 39.5146 70.0773 39.5146 69.1072Z" fill="#222831"/>
<path d="M21.8861 87.8857C21.8861 87.3444 21.847 86.803 21.8861 86.2703C22.0118 84.8671 22.0118 83.6285 19.9914 84.0399C19.4061 84.1569 19.276 83.7714 19.2847 83.2604C19.2934 82.7493 19.2847 82.3076 20.0174 82.3206C22.0118 82.3466 24.0062 82.3466 26.0005 82.3206C26.6682 82.3206 26.7939 82.6194 26.7983 83.1868C26.8026 83.7541 26.6422 84.1612 25.9918 84.0313C24.2836 83.6978 24.0582 84.5856 24.1622 86.0061C24.275 87.5566 24.1275 89.1287 24.2099 90.6834C24.262 91.6579 23.8674 91.8095 23.0046 91.8268C22.0508 91.8268 21.7993 91.502 21.8644 90.6185C21.9294 89.735 21.8861 88.7995 21.8861 87.8857Z" fill="#222831"/>
<path d="M29.7118 67.3662C29.7421 67.8493 29.7421 68.3339 29.7118 68.817C29.4993 70.4671 29.7118 71.7014 31.8796 71.2769C32.5603 71.1427 32.6253 71.6364 32.647 72.1821C32.647 72.8187 32.4215 73.0742 31.8059 73.0093C31.6977 73.0006 31.5889 73.0006 31.4807 73.0093C27.4269 73.1392 27.4269 73.1392 27.4269 69.1115C27.4269 67.6044 27.492 66.0799 27.4269 64.5901C27.3662 63.5334 27.9169 63.5377 28.6973 63.5074C29.5644 63.4684 29.8202 63.7976 29.7681 64.6204C29.6641 65.5299 29.7118 66.448 29.7118 67.3662Z" fill="#222831"/>
<path d="M47.8302 68.3276C47.8302 69.406 47.8042 70.493 47.8302 71.5628C47.8605 72.4289 47.8909 73.0439 46.6292 73.0612C45.2722 73.0612 45.476 72.325 45.476 71.5238C45.476 69.2068 45.5193 66.8898 45.476 64.5944C45.4543 63.698 45.7925 63.5074 46.6032 63.5247C47.414 63.5421 47.9386 63.5854 47.8605 64.6291C47.7608 65.8417 47.8302 67.0847 47.8302 68.3276Z" fill="#222831"/>
<path d="M33.5748 68.1587C33.5748 66.9201 33.6268 65.6815 33.5748 64.4472C33.5141 63.3991 34.1731 63.5464 34.8191 63.5204C35.4651 63.4944 35.929 63.5594 35.9116 64.4385C35.8596 67.0197 35.8596 69.6023 35.9116 72.1864C35.9116 73.1608 35.3263 73.0093 34.7497 73.0049C34.1731 73.0006 33.5357 73.1738 33.5748 72.1951C33.6138 70.8525 33.5748 69.5056 33.5748 68.1587Z" fill="#222831"/>
</g>
<defs>
<clipPath id="clip0_4_87">
<rect width="77" height="92" fill="white"/>
</clipPath>
</defs>
</svg>
