<svg width="100" height="100" xmlns="http://www.w3.org/2000/svg">

 <g>
  <title>background</title>
  <rect fill="none" id="canvas_background" height="102" width="102" y="-1" x="-1"/>
 </g>
 <g>
  <title>Layer 1</title>
  <circle id="svg_1" class="fill-4f5d73" r="32" fill="#e0e0d1" cy="34" cx="49"/>
  <path id="svg_2" class="fill-231f20" opacity="0.2" fill="#231F20" d="m49.096,40.682c-1.556,1.556 -6.087,12.54 -6.087,12.54c-0.665,1.208 0.33,2.085 2.593,0.936l8.131,-4.435c4.381,-2.435 5.228,-3.071 5.17,-8.028l-0.815,-5.853c-0.279,-2.005 -1.78,-2.373 -3.336,-0.817l-5.656,5.657zm-5.024,-5.024c-1.556,1.556 -12.54,6.087 -12.54,6.087c-1.208,0.665 -2.085,-0.33 -0.936,-2.593l4.435,-8.131c2.435,-4.381 3.071,-5.228 8.028,-5.17l5.853,0.815c2.005,0.279 2.373,1.78 0.817,3.336l-5.657,5.656z"/>
  <path id="svg_3" class="fill-c75c5c" fill="#C75C5C" d="m49.096,38.682c-1.556,1.556 -6.087,12.54 -6.087,12.54c-0.665,1.208 0.33,2.085 2.593,0.936l8.131,-4.435c4.381,-2.435 5.228,-3.071 5.17,-8.028l-0.815,-5.853c-0.279,-2.005 -1.78,-2.373 -3.336,-0.817l-5.656,5.657zm-5.024,-5.024c-1.556,1.556 -12.54,6.087 -12.54,6.087c-1.208,0.665 -2.085,-0.33 -0.936,-2.593l4.435,-8.131c2.435,-4.381 3.071,-5.228 8.028,-5.17l5.853,0.815c2.005,0.279 2.373,1.78 0.817,3.336l-5.657,5.656z"/>
  <path id="svg_4" class="fill-231f20" opacity="0.2" fill="#231F20" d="m38.247,40.545c5.074,-5.074 9.337,-3.526 9.337,-3.526s1.549,4.263 -3.526,9.337s-13.291,8.76 -13.931,8.12c-0.62,-0.621 3.045,-8.857 8.12,-13.931z"/>
  <path id="svg_5" class="fill-e0995e" fill="#E0995E" d="m38.247,38.545c5.074,-5.074 9.337,-3.526 9.337,-3.526s1.549,4.263 -3.526,9.337s-13.291,8.76 -13.931,8.12c-0.62,-0.621 3.045,-8.857 8.12,-13.931z"/>
  <path id="svg_6" class="fill-f5cf87" fill="#F5CF87" d="m42.489,34.302c5.074,-5.074 9.337,-3.526 9.337,-3.526s1.549,4.263 -3.526,9.337s-13.291,8.76 -13.931,8.12c-0.62,-0.62 3.046,-8.857 8.12,-13.931z"/>
  <path id="svg_7" class="fill-231f20" opacity="0.2" fill="#231F20" d="m60.634,38.078c-7.81,7.81 -19.783,5.673 -19.783,5.673s-2.137,-11.972 5.673,-19.783s19.643,-8.641 21.197,-7.087c1.507,1.507 0.724,13.387 -7.087,21.197z"/>
  <path id="svg_8" class="fill-e0e0d1 fill-4f5d71" fill="#4f5d71" d="m60.634,36.078c-7.81,7.81 -19.783,5.673 -19.783,5.673s-2.137,-11.972 5.673,-19.783s19.643,-8.641 21.197,-7.087c1.507,1.507 0.724,13.387 -7.087,21.197z"/>
  <path id="svg_9" class="fill-231f20" opacity="0.2" fill="#231F20" d="m38.023,47.994c-0.781,0.781 -1.34,1.488 -2.121,0.707c-0.781,-0.781 -0.074,-1.34 0.707,-2.121l9.899,-12.728c0.781,-0.781 4.169,-1.488 4.95,-0.707c0.781,0.781 0.074,4.169 -0.707,4.95l-12.728,9.899z"/>
  <path id="svg_10" class="fill-c75c5c" fill="#C75C5C" d="m38.023,45.994c-0.781,0.781 -1.34,1.488 -2.121,0.707c-0.781,-0.781 -0.074,-1.34 0.707,-2.121l9.899,-12.728c0.781,-0.781 4.169,-1.488 4.95,-0.707c0.781,0.781 0.074,4.169 -0.707,4.95l-12.728,9.899z"/>
  <circle id="svg_11" class="fill-231f20" opacity="0.2" r="4" transform="rotate(-45.001, 56.604, 28.15)" fill="#231F20" cy="28.15" cx="56.604"/>
  <circle id="svg_12" class="fill-231f20" opacity="0.2" r="2" transform="rotate(-45.001, 62.261, 22.494)" fill="#231F20" cy="22.493" cx="62.261"/>
  <circle id="svg_13" class="fill-4f5d73" r="4" transform="rotate(-45.001, 56.604, 26.15)" fill="#e0e0d1" cy="26.15" cx="56.604"/>
  <circle id="svg_14" class="fill-4f5d73" r="2" transform="rotate(-45.001, 62.261, 20.494)" fill="#e0e0d1" cy="20.493" cx="62.261"/>
  <text font-weight="bold" transform="matrix(0.891752, 0, 0, 1, 1.3531, 0)" xml:space="preserve" text-anchor="start" font-family="Helvetica, Arial, sans-serif" font-size="24" id="svg_15" y="91.5" x="12.5" stroke-width="0" fill="#e0e0d1">Rocket</text>
 </g>
</svg>