<svg width="37" height="36" viewBox="0 0 37 36" fill="none" xmlns="http://www.w3.org/2000/svg">
<g filter="url(#filter0_d_12_2760)">
<path d="M10.3059 12.1219V10.1194H4.45703C4.38244 10.1194 4.3109 10.149 4.25816 10.2018C4.20541 10.2545 4.17578 10.326 4.17578 10.4006V10.4344C4.17578 10.8819 4.35357 11.3112 4.67004 11.6276C4.98651 11.9441 5.41573 12.1219 5.86328 12.1219H10.3059Z" fill="#CBC8C7"/>
</g>
<g filter="url(#filter1_d_12_2760)">
<path d="M10.3063 14.103V12.1219H6.00879C5.85354 12.1219 5.72754 12.2456 5.72754 12.3998V12.4335C5.72754 13.356 6.48354 14.103 7.41504 14.103H10.3063Z" fill="#BDBFBD"/>
</g>
<g filter="url(#filter2_d_12_2760)">
<path d="M2.99609 8.13824C2.9215 8.13824 2.84996 8.16788 2.79722 8.22062C2.74448 8.27337 2.71484 8.3449 2.71484 8.41949V8.45324C2.71484 8.9008 2.89263 9.33002 3.2091 9.64649C3.52557 9.96295 3.95479 10.1407 4.40234 10.1407H9.23984C9.48734 10.1407 9.68984 10.3432 9.68984 10.5907V13.5405C9.68984 13.6897 9.74911 13.8328 9.8546 13.9382C9.96008 14.0437 10.1032 14.103 10.2523 14.103H12.5968C13.3878 14.103 14.1464 13.7888 14.7057 13.2295C15.265 12.6702 15.5792 11.9116 15.5792 11.1206C15.5792 10.3296 15.265 9.57107 14.7057 9.01176C14.1464 8.45246 13.3878 8.13824 12.5968 8.13824H2.99609Z" fill="#D6D2D1"/>
<path d="M2.99609 8.13824C2.9215 8.13824 2.84996 8.16788 2.79722 8.22062C2.74448 8.27337 2.71484 8.3449 2.71484 8.41949V8.45324C2.71484 8.9008 2.89263 9.33002 3.2091 9.64649C3.52557 9.96295 3.95479 10.1407 4.40234 10.1407H9.23984C9.48734 10.1407 9.68984 10.3432 9.68984 10.5907V13.5405C9.68984 13.6897 9.74911 13.8328 9.8546 13.9382C9.96008 14.0437 10.1032 14.103 10.2523 14.103H12.5968C13.3878 14.103 14.1464 13.7888 14.7057 13.2295C15.265 12.6702 15.5792 11.9116 15.5792 11.1206C15.5792 10.3296 15.265 9.57107 14.7057 9.01176C14.1464 8.45246 13.3878 8.13824 12.5968 8.13824H2.99609Z" fill="url(#paint0_radial_12_2760)"/>
</g>
<path d="M20.7452 5.60367L7.1661 19.1828C6.19956 20.1493 6.19956 21.7164 7.1661 22.6829L14.88 30.3969C15.8466 31.3634 17.4137 31.3634 18.3802 30.3969L31.9593 16.8178C32.9258 15.8512 32.9258 14.2841 31.9593 13.3176L24.2454 5.60367C23.2788 4.63712 21.7118 4.63712 20.7452 5.60367Z" fill="url(#paint1_linear_12_2760)"/>
<path d="M20.7452 5.60367L7.1661 19.1828C6.19956 20.1493 6.19956 21.7164 7.1661 22.6829L14.88 30.3969C15.8466 31.3634 17.4137 31.3634 18.3802 30.3969L31.9593 16.8178C32.9258 15.8512 32.9258 14.2841 31.9593 13.3176L24.2454 5.60367C23.2788 4.63712 21.7118 4.63712 20.7452 5.60367Z" fill="url(#paint2_linear_12_2760)"/>
<path d="M20.7452 5.60367L7.1661 19.1828C6.19956 20.1493 6.19956 21.7164 7.1661 22.6829L14.88 30.3969C15.8466 31.3634 17.4137 31.3634 18.3802 30.3969L31.9593 16.8178C32.9258 15.8512 32.9258 14.2841 31.9593 13.3176L24.2454 5.60367C23.2788 4.63712 21.7118 4.63712 20.7452 5.60367Z" fill="url(#paint3_linear_12_2760)"/>
<path d="M20.7452 5.60367L7.1661 19.1828C6.19956 20.1493 6.19956 21.7164 7.1661 22.6829L14.88 30.3969C15.8466 31.3634 17.4137 31.3634 18.3802 30.3969L31.9593 16.8178C32.9258 15.8512 32.9258 14.2841 31.9593 13.3176L24.2454 5.60367C23.2788 4.63712 21.7118 4.63712 20.7452 5.60367Z" fill="url(#paint4_radial_12_2760)"/>
<path d="M20.7452 5.60367L7.1661 19.1828C6.19956 20.1493 6.19956 21.7164 7.1661 22.6829L14.88 30.3969C15.8466 31.3634 17.4137 31.3634 18.3802 30.3969L31.9593 16.8178C32.9258 15.8512 32.9258 14.2841 31.9593 13.3176L24.2454 5.60367C23.2788 4.63712 21.7118 4.63712 20.7452 5.60367Z" fill="url(#paint5_radial_12_2760)"/>
<path d="M18.5401 3.39981L4.96103 16.9789C3.99448 17.9455 3.99448 19.5125 4.96103 20.4791L12.6749 28.193C13.6415 29.1596 15.2086 29.1596 16.1751 28.193L29.7542 14.6139C30.7208 13.6474 30.7208 12.0803 29.7542 11.1137L22.0403 3.39981C21.0738 2.43326 19.5067 2.43326 18.5401 3.39981Z" fill="url(#paint6_radial_12_2760)"/>
<g filter="url(#filter3_ddd_12_2760)">
<path fill-rule="evenodd" clip-rule="evenodd" d="M19.8398 4.70587L6.26896 18.2779C6.20848 18.3383 6.1605 18.41 6.12776 18.4889C6.09503 18.5679 6.07818 18.6525 6.07818 18.738C6.07818 18.8235 6.09503 18.9081 6.12776 18.9871C6.1605 19.066 6.20848 19.1377 6.26896 19.1981L13.9561 26.8852C14.078 27.007 14.2433 27.0755 14.4156 27.0755C14.588 27.0755 14.7533 27.007 14.8752 26.8852L28.4472 13.3132C28.5077 13.2529 28.5557 13.1811 28.5884 13.1022C28.6211 13.0232 28.638 12.9386 28.638 12.8531C28.638 12.7676 28.6211 12.683 28.5884 12.6041C28.5557 12.5251 28.5077 12.4534 28.4472 12.393L20.7601 4.70587C20.6997 4.64539 20.628 4.59741 20.549 4.56467C20.4701 4.53194 20.3854 4.51509 20.3 4.51509C20.2145 4.51509 20.1299 4.53194 20.0509 4.56467C19.972 4.59741 19.9002 4.64539 19.8398 4.70587ZM5.80883 17.8177C5.56482 18.0618 5.42773 18.3929 5.42773 18.738C5.42773 19.0831 5.56482 19.4142 5.80883 19.6582L13.496 27.3442C13.74 27.5879 14.0708 27.7248 14.4156 27.7248C14.7605 27.7248 15.0913 27.5879 15.3353 27.3442L28.9073 13.7734C29.1514 13.5293 29.2884 13.1983 29.2884 12.8531C29.2884 12.508 29.1514 12.177 28.9073 11.9329L21.2202 4.24687C20.9762 4.0032 20.6454 3.86633 20.3005 3.86633C19.9557 3.86633 19.6249 4.0032 19.3808 4.24687L5.80883 17.8177Z" fill="url(#paint7_linear_12_2760)"/>
</g>
<path d="M22.9445 15.4406C24.5112 13.8739 24.6098 11.4325 23.1649 9.98747C21.7199 8.54248 19.2784 8.64113 17.7117 10.2078C16.145 11.7745 16.0464 14.216 17.4914 15.6609C18.9364 17.1059 21.3778 17.0073 22.9445 15.4406Z" fill="#289D5B"/>
<path d="M22.9445 15.4406C24.5112 13.8739 24.6098 11.4325 23.1649 9.98747C21.7199 8.54248 19.2784 8.64113 17.7117 10.2078C16.145 11.7745 16.0464 14.216 17.4914 15.6609C18.9364 17.1059 21.3778 17.0073 22.9445 15.4406Z" fill="url(#paint8_linear_12_2760)"/>
<path d="M22.9445 15.4406C24.5112 13.8739 24.6098 11.4325 23.1649 9.98747C21.7199 8.54248 19.2784 8.64113 17.7117 10.2078C16.145 11.7745 16.0464 14.216 17.4914 15.6609C18.9364 17.1059 21.3778 17.0073 22.9445 15.4406Z" fill="url(#paint9_radial_12_2760)"/>
<g filter="url(#filter4_f_12_2760)">
<path d="M11.3945 11.0981L13.9449 8.54776L24.8822 19.485L22.2362 22.131L11.3945 11.0981Z" fill="#127531"/>
</g>
<g filter="url(#filter5_f_12_2760)">
<path d="M24.4312 24.1155L26.9715 21.5752L24.8823 19.4861L22.2363 22.1299L24.4312 24.1155Z" fill="#0B3F2E"/>
</g>
<path d="M11.1758 10.764L13.8598 8.08001L27.2782 21.4984L24.5942 24.1824L11.1758 10.764Z" fill="url(#paint10_linear_12_2760)"/>
<path d="M11.1758 10.764L13.8598 8.08001L27.2782 21.4984L24.5942 24.1824L11.1758 10.764Z" fill="url(#paint11_linear_12_2760)"/>
<g filter="url(#filter6_ddd_12_2760)">
<path d="M10.8622 17.8391C10.7683 17.7382 10.7173 17.6047 10.7198 17.4669C10.7224 17.3291 10.7783 17.1976 10.8759 17.1002C10.9734 17.0028 11.105 16.9471 11.2428 16.9447C11.3806 16.9424 11.514 16.9936 11.6148 17.0876L12.0288 17.5016C12.7938 17.037 13.5723 17.226 14.02 17.5905C14.2754 17.7975 14.3058 18.081 14.1247 18.3049C14.0375 18.4119 13.9114 18.48 13.7741 18.4941C13.6368 18.5083 13.4994 18.4673 13.3923 18.3803C13.246 18.261 12.7904 17.9471 12.2257 18.513C11.4157 19.323 12.4653 20.4109 13.4047 19.4715C13.8063 19.0688 14.4655 18.8753 14.9257 18.9518C15.4049 19.0294 15.7762 19.2701 16.0394 19.6211C16.4388 20.2545 16.3859 20.9205 16.0248 21.4976L16.423 21.8959C16.5171 21.9967 16.5683 22.1301 16.566 22.2679C16.5636 22.4057 16.5079 22.5373 16.4105 22.6348C16.3131 22.7324 16.1816 22.7883 16.0438 22.7909C15.9059 22.7934 15.7725 22.7424 15.6715 22.6485L15.2812 22.2581C14.6433 22.671 13.894 22.6676 13.2528 22.1625C13.0278 21.9836 12.9715 21.6743 13.1493 21.4493C13.327 21.2243 13.6555 21.1849 13.8805 21.3626C13.993 21.4515 14.1742 21.5539 14.371 21.5741C14.5387 21.5933 14.7479 21.5494 15.0044 21.2929C15.325 20.9723 15.3768 20.6854 15.3262 20.4728C15.2159 19.8641 14.479 19.71 14.0437 20.1443C13.4384 20.7023 13.0053 20.8406 12.5204 20.8193C12.1163 20.8017 11.7328 20.6354 11.4438 20.3524C11.1837 20.0889 11.0193 19.7459 10.9769 19.3781C10.9396 18.9775 11.0413 18.5763 11.2649 18.2419L10.8622 17.8391Z" fill="url(#paint12_linear_12_2760)"/>
</g>
<g filter="url(#filter7_dd_12_2760)">
<path d="M23.8906 26.1259H25.8943V31.9759C25.8943 32.0505 25.8646 32.122 25.8119 32.1748C25.7591 32.2275 25.6876 32.2571 25.613 32.2571H25.5792C25.1317 32.2571 24.7025 32.0793 24.386 31.7629C24.0695 31.4464 23.8917 31.0172 23.8917 30.5696L23.8906 26.1259Z" fill="#C8C2C3"/>
</g>
<g filter="url(#filter8_dd_12_2760)">
<path d="M21.8887 26.1259H23.8912V30.4234C23.8912 30.498 23.8615 30.5695 23.8088 30.6223C23.7561 30.675 23.6845 30.7046 23.6099 30.7046H23.5762C23.1286 30.7046 22.6994 30.5268 22.3829 30.2104C22.0665 29.8939 21.8887 29.4647 21.8887 29.0171V26.1259Z" fill="#C8C2C3"/>
</g>
<g filter="url(#filter9_dd_12_2760)">
<path d="M24.8823 20.8541C24.09 20.8526 23.3296 21.1659 22.7682 21.7249C22.2068 22.284 21.8905 23.0431 21.8887 23.8354V26.181C21.8887 26.2551 21.9033 26.3284 21.9317 26.3968C21.9601 26.4652 22.0017 26.5273 22.0542 26.5796C22.1067 26.6318 22.169 26.6732 22.2375 26.7013C22.306 26.7295 22.3794 26.7438 22.4534 26.7435H25.4122C25.4715 26.7432 25.5302 26.7546 25.5851 26.7771C25.6399 26.7996 25.6898 26.8327 25.7318 26.8745C25.7739 26.9163 25.8072 26.966 25.83 27.0208C25.8527 27.0755 25.8644 27.1342 25.8644 27.1935V32.0299C25.8644 32.9614 26.6227 33.7174 27.5587 33.7174H27.5924C27.6295 33.7177 27.6664 33.7106 27.7007 33.6966C27.7351 33.6826 27.7664 33.662 27.7928 33.6358C27.8191 33.6097 27.84 33.5786 27.8543 33.5443C27.8686 33.51 27.8759 33.4733 27.8759 33.4361V23.8365C27.8752 23.4441 27.7972 23.0557 27.6463 22.6935C27.4955 22.3312 27.2748 22.0023 26.9968 21.7253C26.7188 21.4484 26.389 21.2289 26.0262 21.0794C25.6634 20.9299 25.2747 20.8534 24.8823 20.8541Z" fill="#DBD7D7"/>
</g>
<defs>
<filter id="filter0_d_12_2760" x="2.42578" y="8.86938" width="8.12988" height="4.0025" filterUnits="userSpaceOnUse" color-interpolation-filters="sRGB">
<feFlood flood-opacity="0" result="BackgroundImageFix"/>
<feColorMatrix in="SourceAlpha" type="matrix" values="0 0 0 0 0 0 0 0 0 0 0 0 0 0 0 0 0 0 127 0" result="hardAlpha"/>
<feOffset dx="-0.75" dy="-0.25"/>
<feGaussianBlur stdDeviation="0.5"/>
<feComposite in2="hardAlpha" operator="out"/>
<feColorMatrix type="matrix" values="0 0 0 0 0.647059 0 0 0 0 0.623529 0 0 0 0 0.623529 0 0 0 1 0"/>
<feBlend mode="normal" in2="BackgroundImageFix" result="effect1_dropShadow_12_2760"/>
<feBlend mode="normal" in="SourceGraphic" in2="effect1_dropShadow_12_2760" result="shape"/>
</filter>
<filter id="filter1_d_12_2760" x="4.22754" y="11.1219" width="6.0791" height="3.48114" filterUnits="userSpaceOnUse" color-interpolation-filters="sRGB">
<feFlood flood-opacity="0" result="BackgroundImageFix"/>
<feColorMatrix in="SourceAlpha" type="matrix" values="0 0 0 0 0 0 0 0 0 0 0 0 0 0 0 0 0 0 127 0" result="hardAlpha"/>
<feOffset dx="-0.75" dy="-0.25"/>
<feGaussianBlur stdDeviation="0.375"/>
<feComposite in2="hardAlpha" operator="out"/>
<feColorMatrix type="matrix" values="0 0 0 0 0.580392 0 0 0 0 0.611765 0 0 0 0 0.584314 0 0 0 1 0"/>
<feBlend mode="normal" in2="BackgroundImageFix" result="effect1_dropShadow_12_2760"/>
<feBlend mode="normal" in="SourceGraphic" in2="effect1_dropShadow_12_2760" result="shape"/>
</filter>
<filter id="filter2_d_12_2760" x="1.96484" y="7.13824" width="14.3643" height="7.46475" filterUnits="userSpaceOnUse" color-interpolation-filters="sRGB">
<feFlood flood-opacity="0" result="BackgroundImageFix"/>
<feColorMatrix in="SourceAlpha" type="matrix" values="0 0 0 0 0 0 0 0 0 0 0 0 0 0 0 0 0 0 127 0" result="hardAlpha"/>
<feOffset dy="-0.25"/>
<feGaussianBlur stdDeviation="0.375"/>
<feComposite in2="hardAlpha" operator="out"/>
<feColorMatrix type="matrix" values="0 0 0 0 0.658824 0 0 0 0 0.623529 0 0 0 0 0.627451 0 0 0 1 0"/>
<feBlend mode="normal" in2="BackgroundImageFix" result="effect1_dropShadow_12_2760"/>
<feBlend mode="normal" in="SourceGraphic" in2="effect1_dropShadow_12_2760" result="shape"/>
</filter>
<filter id="filter3_ddd_12_2760" x="4.97773" y="3.61633" width="24.7604" height="24.5585" filterUnits="userSpaceOnUse" color-interpolation-filters="sRGB">
<feFlood flood-opacity="0" result="BackgroundImageFix"/>
<feColorMatrix in="SourceAlpha" type="matrix" values="0 0 0 0 0 0 0 0 0 0 0 0 0 0 0 0 0 0 127 0" result="hardAlpha"/>
<feOffset dy="0.2"/>
<feGaussianBlur stdDeviation="0.125"/>
<feComposite in2="hardAlpha" operator="out"/>
<feColorMatrix type="matrix" values="0 0 0 0 0.0941176 0 0 0 0 0.509804 0 0 0 0 0.254902 0 0 0 1 0"/>
<feBlend mode="normal" in2="BackgroundImageFix" result="effect1_dropShadow_12_2760"/>
<feColorMatrix in="SourceAlpha" type="matrix" values="0 0 0 0 0 0 0 0 0 0 0 0 0 0 0 0 0 0 127 0" result="hardAlpha"/>
<feOffset dx="-0.2"/>
<feGaussianBlur stdDeviation="0.125"/>
<feComposite in2="hardAlpha" operator="out"/>
<feColorMatrix type="matrix" values="0 0 0 0 0.0941176 0 0 0 0 0.509804 0 0 0 0 0.254902 0 0 0 1 0"/>
<feBlend mode="normal" in2="effect1_dropShadow_12_2760" result="effect2_dropShadow_12_2760"/>
<feColorMatrix in="SourceAlpha" type="matrix" values="0 0 0 0 0 0 0 0 0 0 0 0 0 0 0 0 0 0 127 0" result="hardAlpha"/>
<feOffset dx="0.2"/>
<feGaussianBlur stdDeviation="0.125"/>
<feComposite in2="hardAlpha" operator="out"/>
<feColorMatrix type="matrix" values="0 0 0 0 0.172549 0 0 0 0 0.709804 0 0 0 0 0.4 0 0 0 1 0"/>
<feBlend mode="normal" in2="effect2_dropShadow_12_2760" result="effect3_dropShadow_12_2760"/>
<feBlend mode="normal" in="SourceGraphic" in2="effect3_dropShadow_12_2760" result="shape"/>
</filter>
<filter id="filter4_f_12_2760" x="10.9945" y="8.14776" width="14.2873" height="14.3833" filterUnits="userSpaceOnUse" color-interpolation-filters="sRGB">
<feFlood flood-opacity="0" result="BackgroundImageFix"/>
<feBlend mode="normal" in="SourceGraphic" in2="BackgroundImageFix" result="shape"/>
<feGaussianBlur stdDeviation="0.2" result="effect1_foregroundBlur_12_2760"/>
</filter>
<filter id="filter5_f_12_2760" x="21.9863" y="19.2361" width="5.23535" height="5.12936" filterUnits="userSpaceOnUse" color-interpolation-filters="sRGB">
<feFlood flood-opacity="0" result="BackgroundImageFix"/>
<feBlend mode="normal" in="SourceGraphic" in2="BackgroundImageFix" result="shape"/>
<feGaussianBlur stdDeviation="0.125" result="effect1_foregroundBlur_12_2760"/>
</filter>
<filter id="filter6_ddd_12_2760" x="10.4697" y="16.7446" width="6.29668" height="6.29631" filterUnits="userSpaceOnUse" color-interpolation-filters="sRGB">
<feFlood flood-opacity="0" result="BackgroundImageFix"/>
<feColorMatrix in="SourceAlpha" type="matrix" values="0 0 0 0 0 0 0 0 0 0 0 0 0 0 0 0 0 0 127 0" result="hardAlpha"/>
<feOffset dx="-0.1" dy="0.1"/>
<feGaussianBlur stdDeviation="0.075"/>
<feComposite in2="hardAlpha" operator="out"/>
<feColorMatrix type="matrix" values="0 0 0 0 0.0901961 0 0 0 0 0.521569 0 0 0 0 0.223529 0 0 0 1 0"/>
<feBlend mode="normal" in2="BackgroundImageFix" result="effect1_dropShadow_12_2760"/>
<feColorMatrix in="SourceAlpha" type="matrix" values="0 0 0 0 0 0 0 0 0 0 0 0 0 0 0 0 0 0 127 0" result="hardAlpha"/>
<feOffset dx="0.1" dy="-0.1"/>
<feGaussianBlur stdDeviation="0.05"/>
<feComposite in2="hardAlpha" operator="out"/>
<feColorMatrix type="matrix" values="0 0 0 0 0.784314 0 0 0 0 0.760784 0 0 0 0 0.752941 0 0 0 1 0"/>
<feBlend mode="normal" in2="effect1_dropShadow_12_2760" result="effect2_dropShadow_12_2760"/>
<feColorMatrix in="SourceAlpha" type="matrix" values="0 0 0 0 0 0 0 0 0 0 0 0 0 0 0 0 0 0 127 0" result="hardAlpha"/>
<feOffset dx="-0.1" dy="0.1"/>
<feGaussianBlur stdDeviation="0.05"/>
<feComposite in2="hardAlpha" operator="out"/>
<feColorMatrix type="matrix" values="0 0 0 0 1 0 0 0 0 0.996078 0 0 0 0 0.992157 0 0 0 1 0"/>
<feBlend mode="normal" in2="effect2_dropShadow_12_2760" result="effect3_dropShadow_12_2760"/>
<feBlend mode="normal" in="SourceGraphic" in2="effect3_dropShadow_12_2760" result="shape"/>
</filter>
<filter id="filter7_dd_12_2760" x="22.8406" y="25.0759" width="4.10391" height="7.63126" filterUnits="userSpaceOnUse" color-interpolation-filters="sRGB">
<feFlood flood-opacity="0" result="BackgroundImageFix"/>
<feColorMatrix in="SourceAlpha" type="matrix" values="0 0 0 0 0 0 0 0 0 0 0 0 0 0 0 0 0 0 127 0" result="hardAlpha"/>
<feOffset dx="0.3" dy="-0.3"/>
<feGaussianBlur stdDeviation="0.375"/>
<feComposite in2="hardAlpha" operator="out"/>
<feColorMatrix type="matrix" values="0 0 0 0 0.658824 0 0 0 0 0.631373 0 0 0 0 0.635294 0 0 0 1 0"/>
<feBlend mode="normal" in2="BackgroundImageFix" result="effect1_dropShadow_12_2760"/>
<feColorMatrix in="SourceAlpha" type="matrix" values="0 0 0 0 0 0 0 0 0 0 0 0 0 0 0 0 0 0 127 0" result="hardAlpha"/>
<feOffset dx="-0.3" dy="-0.3"/>
<feGaussianBlur stdDeviation="0.375"/>
<feComposite in2="hardAlpha" operator="out"/>
<feColorMatrix type="matrix" values="0 0 0 0 0.721569 0 0 0 0 0.682353 0 0 0 0 0.690196 0 0 0 1 0"/>
<feBlend mode="normal" in2="effect1_dropShadow_12_2760" result="effect2_dropShadow_12_2760"/>
<feBlend mode="normal" in="SourceGraphic" in2="effect2_dropShadow_12_2760" result="shape"/>
</filter>
<filter id="filter8_dd_12_2760" x="20.8387" y="25.0759" width="4.10293" height="6.07874" filterUnits="userSpaceOnUse" color-interpolation-filters="sRGB">
<feFlood flood-opacity="0" result="BackgroundImageFix"/>
<feColorMatrix in="SourceAlpha" type="matrix" values="0 0 0 0 0 0 0 0 0 0 0 0 0 0 0 0 0 0 127 0" result="hardAlpha"/>
<feOffset dx="0.3" dy="-0.3"/>
<feGaussianBlur stdDeviation="0.375"/>
<feComposite in2="hardAlpha" operator="out"/>
<feColorMatrix type="matrix" values="0 0 0 0 0.611765 0 0 0 0 0.603922 0 0 0 0 0.596078 0 0 0 1 0"/>
<feBlend mode="normal" in2="BackgroundImageFix" result="effect1_dropShadow_12_2760"/>
<feColorMatrix in="SourceAlpha" type="matrix" values="0 0 0 0 0 0 0 0 0 0 0 0 0 0 0 0 0 0 127 0" result="hardAlpha"/>
<feOffset dx="-0.3" dy="-0.3"/>
<feGaussianBlur stdDeviation="0.375"/>
<feComposite in2="hardAlpha" operator="out"/>
<feColorMatrix type="matrix" values="0 0 0 0 0.635294 0 0 0 0 0.611765 0 0 0 0 0.607843 0 0 0 1 0"/>
<feBlend mode="normal" in2="effect1_dropShadow_12_2760" result="effect2_dropShadow_12_2760"/>
<feBlend mode="normal" in="SourceGraphic" in2="effect2_dropShadow_12_2760" result="shape"/>
</filter>
<filter id="filter9_dd_12_2760" x="20.6387" y="20.1041" width="7.8873" height="14.3633" filterUnits="userSpaceOnUse" color-interpolation-filters="sRGB">
<feFlood flood-opacity="0" result="BackgroundImageFix"/>
<feColorMatrix in="SourceAlpha" type="matrix" values="0 0 0 0 0 0 0 0 0 0 0 0 0 0 0 0 0 0 127 0" result="hardAlpha"/>
<feOffset dx="0.15" dy="-0.15"/>
<feGaussianBlur stdDeviation="0.25"/>
<feComposite in2="hardAlpha" operator="out"/>
<feColorMatrix type="matrix" values="0 0 0 0 0.729412 0 0 0 0 0.678431 0 0 0 0 0.686275 0 0 0 1 0"/>
<feBlend mode="normal" in2="BackgroundImageFix" result="effect1_dropShadow_12_2760"/>
<feColorMatrix in="SourceAlpha" type="matrix" values="0 0 0 0 0 0 0 0 0 0 0 0 0 0 0 0 0 0 127 0" result="hardAlpha"/>
<feOffset dx="-0.5"/>
<feGaussianBlur stdDeviation="0.375"/>
<feComposite in2="hardAlpha" operator="out"/>
<feColorMatrix type="matrix" values="0 0 0 0 0.964706 0 0 0 0 0.964706 0 0 0 0 0.956863 0 0 0 1 0"/>
<feBlend mode="normal" in2="effect1_dropShadow_12_2760" result="effect2_dropShadow_12_2760"/>
<feBlend mode="normal" in="SourceGraphic" in2="effect2_dropShadow_12_2760" result="shape"/>
</filter>
<radialGradient id="paint0_radial_12_2760" cx="0" cy="0" r="1" gradientUnits="userSpaceOnUse" gradientTransform="translate(4.55197 8.36662) scale(8.76642 1.55098)">
<stop stop-color="#E3E1E1"/>
<stop offset="1" stop-color="#E3E1E1" stop-opacity="0"/>
</radialGradient>
<linearGradient id="paint1_linear_12_2760" x1="31.8495" y1="15.432" x2="16.4766" y2="30.805" gradientUnits="userSpaceOnUse">
<stop stop-color="#12724A"/>
<stop offset="1" stop-color="#116245"/>
</linearGradient>
<linearGradient id="paint2_linear_12_2760" x1="32.4247" y1="13.7829" x2="30.7955" y2="15.4121" gradientUnits="userSpaceOnUse">
<stop stop-color="#1C8F60"/>
<stop offset="1" stop-color="#1C8F60" stop-opacity="0"/>
</linearGradient>
<linearGradient id="paint3_linear_12_2760" x1="15.269" y1="30.7859" x2="16.9555" y2="29.0994" gradientUnits="userSpaceOnUse">
<stop offset="0.557" stop-color="#195840"/>
<stop offset="1" stop-color="#195840" stop-opacity="0"/>
</linearGradient>
<radialGradient id="paint4_radial_12_2760" cx="0" cy="0" r="1" gradientUnits="userSpaceOnUse" gradientTransform="translate(23.1309 22.7776) rotate(114.806) scale(4.60882 4.37294)">
<stop offset="0.307" stop-color="#0E593C"/>
<stop offset="1" stop-color="#0E593C" stop-opacity="0"/>
</radialGradient>
<radialGradient id="paint5_radial_12_2760" cx="0" cy="0" r="1" gradientUnits="userSpaceOnUse" gradientTransform="translate(23.0598 24.1848) rotate(138.249) scale(5.70193 1.20909)">
<stop offset="0.396" stop-color="#0F4F35"/>
<stop offset="1" stop-color="#0F4F35" stop-opacity="0"/>
</radialGradient>
<radialGradient id="paint6_radial_12_2760" cx="0" cy="0" r="1" gradientUnits="userSpaceOnUse" gradientTransform="translate(4.02552 18.7958) rotate(3.2593) scale(16.8574 22.1063)">
<stop stop-color="#31DE74"/>
<stop offset="1" stop-color="#20CF5E"/>
</radialGradient>
<linearGradient id="paint7_linear_12_2760" x1="18.7092" y1="5.33925" x2="16.8305" y2="25.236" gradientUnits="userSpaceOnUse">
<stop stop-color="#24A35B"/>
<stop offset="1" stop-color="#27A05A"/>
</linearGradient>
<linearGradient id="paint8_linear_12_2760" x1="19.7052" y1="14.0803" x2="20.7983" y2="12.9873" gradientUnits="userSpaceOnUse">
<stop offset="0.228" stop-color="#269553"/>
<stop offset="1" stop-color="#269553" stop-opacity="0"/>
</linearGradient>
<radialGradient id="paint9_radial_12_2760" cx="0" cy="0" r="1" gradientUnits="userSpaceOnUse" gradientTransform="translate(20.741 13.2371) rotate(-85.802) scale(4.19004 4.11842)">
<stop offset="0.587" stop-color="#249755" stop-opacity="0"/>
<stop offset="0.987" stop-color="#16793D"/>
</radialGradient>
<linearGradient id="paint10_linear_12_2760" x1="13.5336" y1="10.4379" x2="24.1535" y2="21.0577" gradientUnits="userSpaceOnUse">
<stop stop-color="#FFD425"/>
<stop offset="1" stop-color="#FFAD24"/>
</linearGradient>
<linearGradient id="paint11_linear_12_2760" x1="26.5877" y1="22.1889" x2="24.2299" y2="19.8311" gradientUnits="userSpaceOnUse">
<stop offset="0.894" stop-color="#CC8139"/>
<stop offset="1" stop-color="#CC8139" stop-opacity="0"/>
</linearGradient>
<linearGradient id="paint12_linear_12_2760" x1="10.8577" y1="17.0921" x2="16.4185" y2="22.653" gradientUnits="userSpaceOnUse">
<stop stop-color="#EFEAEA"/>
<stop offset="1" stop-color="#EAE3E3"/>
</linearGradient>
</defs>
</svg>
