<svg width="37" height="36" viewBox="0 0 37 36" fill="none" xmlns="http://www.w3.org/2000/svg">
<g clip-path="url(#clip0_12_2741)">
<path d="M18.0887 33.7477C28.5895 33.7477 33.8376 26.6963 33.8376 17.9978C33.8376 9.3015 28.5895 2.25 18.0876 2.25C7.58797 2.25 2.33984 9.3015 2.33984 17.9989C2.33984 26.6962 7.58684 33.7477 18.0887 33.7477Z" fill="url(#paint0_radial_12_2741)"/>
<path d="M18.0887 33.7477C28.5895 33.7477 33.8376 26.6963 33.8376 17.9978C33.8376 9.3015 28.5895 2.25 18.0876 2.25C7.58797 2.25 2.33984 9.3015 2.33984 17.9989C2.33984 26.6962 7.58684 33.7477 18.0887 33.7477Z" fill="url(#paint1_radial_12_2741)"/>
<path d="M18.0887 33.7477C28.5895 33.7477 33.8376 26.6963 33.8376 17.9978C33.8376 9.3015 28.5895 2.25 18.0876 2.25C7.58797 2.25 2.33984 9.3015 2.33984 17.9989C2.33984 26.6962 7.58684 33.7477 18.0887 33.7477Z" fill="url(#paint2_radial_12_2741)"/>
<path d="M18.0887 33.7477C28.5895 33.7477 33.8376 26.6963 33.8376 17.9978C33.8376 9.3015 28.5895 2.25 18.0876 2.25C7.58797 2.25 2.33984 9.3015 2.33984 17.9989C2.33984 26.6962 7.58684 33.7477 18.0887 33.7477Z" fill="url(#paint3_radial_12_2741)" fill-opacity="0.6"/>
<path d="M18.0887 33.7477C28.5895 33.7477 33.8376 26.6963 33.8376 17.9978C33.8376 9.3015 28.5895 2.25 18.0876 2.25C7.58797 2.25 2.33984 9.3015 2.33984 17.9989C2.33984 26.6962 7.58684 33.7477 18.0887 33.7477Z" fill="url(#paint4_radial_12_2741)"/>
<path d="M18.0887 33.7477C28.5895 33.7477 33.8376 26.6963 33.8376 17.9978C33.8376 9.3015 28.5895 2.25 18.0876 2.25C7.58797 2.25 2.33984 9.3015 2.33984 17.9989C2.33984 26.6962 7.58684 33.7477 18.0887 33.7477Z" fill="url(#paint5_radial_12_2741)"/>
<path d="M18.0887 33.7477C28.5895 33.7477 33.8376 26.6963 33.8376 17.9978C33.8376 9.3015 28.5895 2.25 18.0876 2.25C7.58797 2.25 2.33984 9.3015 2.33984 17.9989C2.33984 26.6962 7.58684 33.7477 18.0887 33.7477Z" fill="url(#paint6_radial_12_2741)"/>
<path d="M18.0887 33.7477C28.5895 33.7477 33.8376 26.6963 33.8376 17.9978C33.8376 9.3015 28.5895 2.25 18.0876 2.25C7.58797 2.25 2.33984 9.3015 2.33984 17.9989C2.33984 26.6962 7.58684 33.7477 18.0887 33.7477Z" fill="url(#paint7_radial_12_2741)"/>
<path fill-rule="evenodd" clip-rule="evenodd" d="M12.1836 6.75C12.4074 6.75 12.622 6.83889 12.7802 6.99713C12.9384 7.15536 13.0273 7.36997 13.0273 7.59375V8.49375C13.6626 8.62342 14.2336 8.9686 14.6436 9.47087C15.0536 9.97313 15.2775 10.6016 15.2773 11.25V11.5312C15.2773 11.755 15.1884 11.9696 15.0302 12.1279C14.872 12.2861 14.6574 12.375 14.4336 12.375C14.2098 12.375 13.9952 12.2861 13.837 12.1279C13.6787 11.9696 13.5898 11.755 13.5898 11.5312V11.25C13.5898 10.9516 13.4713 10.6655 13.2603 10.4545C13.0494 10.2435 12.7632 10.125 12.4648 10.125H11.9023C11.604 10.125 11.3178 10.2435 11.1068 10.4545C10.8959 10.6655 10.7773 10.9516 10.7773 11.25V11.4806C10.7774 11.7548 10.8776 12.0195 11.0591 12.225C11.2405 12.4305 11.4908 12.5626 11.7628 12.5966L12.8136 12.7283C13.4937 12.8132 14.1193 13.1436 14.573 13.6574C15.0267 14.1711 15.2772 14.8329 15.2773 15.5182V15.75C15.2775 16.3984 15.0536 17.0269 14.6436 17.5291C14.2336 18.0314 13.6626 18.3766 13.0273 18.5063V19.4062C13.0273 19.63 12.9384 19.8446 12.7802 20.0029C12.622 20.1611 12.4074 20.25 12.1836 20.25C11.9598 20.25 11.7452 20.1611 11.587 20.0029C11.4287 19.8446 11.3398 19.63 11.3398 19.4062V18.5063C10.7046 18.3766 10.1336 18.0314 9.72361 17.5291C9.3136 17.0269 9.08971 16.3984 9.08984 15.75V15.4688C9.08984 15.245 9.17874 15.0304 9.33697 14.8721C9.49521 14.7139 9.70982 14.625 9.93359 14.625C10.1574 14.625 10.372 14.7139 10.5302 14.8721C10.6884 15.0304 10.7773 15.245 10.7773 15.4688V15.75C10.7773 16.0484 10.8959 16.3345 11.1068 16.5455C11.3178 16.7565 11.604 16.875 11.9023 16.875H12.4648C12.7632 16.875 13.0494 16.7565 13.2603 16.5455C13.4713 16.3345 13.5898 16.0484 13.5898 15.75V15.5194C13.5898 15.2452 13.4896 14.9805 13.3081 14.775C13.1266 14.5695 12.8764 14.4374 12.6043 14.4034L11.5536 14.2717C10.8735 14.1868 10.2478 13.8564 9.79417 13.3426C9.3405 12.8289 9.09004 12.1671 9.08984 11.4818V11.25C9.08971 10.6016 9.3136 9.97313 9.72361 9.47087C10.1336 8.9686 10.7046 8.62342 11.3398 8.49375V7.59375C11.3398 7.36997 11.4287 7.15536 11.587 6.99713C11.7452 6.83889 11.9598 6.75 12.1836 6.75ZM23.9961 6.75C24.2199 6.75 24.4345 6.83889 24.5927 6.99713C24.7509 7.15536 24.8398 7.36997 24.8398 7.59375V8.49375C25.4751 8.62342 26.0461 8.9686 26.4561 9.47087C26.8661 9.97313 27.09 10.6016 27.0898 11.25V11.5312C27.0898 11.755 27.0009 11.9696 26.8427 12.1279C26.6845 12.2861 26.4699 12.375 26.2461 12.375C26.0223 12.375 25.8077 12.2861 25.6495 12.1279C25.4912 11.9696 25.4023 11.755 25.4023 11.5312V11.25C25.4023 10.9516 25.2838 10.6655 25.0728 10.4545C24.8619 10.2435 24.5757 10.125 24.2773 10.125H23.7148C23.4165 10.125 23.1303 10.2435 22.9193 10.4545C22.7084 10.6655 22.5898 10.9516 22.5898 11.25V11.4806C22.5899 11.7548 22.6901 12.0195 22.8716 12.225C23.053 12.4305 23.3033 12.5626 23.5753 12.5966L24.6261 12.7283C25.3062 12.8132 25.9318 13.1436 26.3855 13.6574C26.8392 14.1711 27.0897 14.8329 27.0898 15.5182V15.75C27.09 16.3984 26.8661 17.0269 26.4561 17.5291C26.0461 18.0314 25.4751 18.3766 24.8398 18.5063V19.4062C24.8398 19.63 24.7509 19.8446 24.5927 20.0029C24.4345 20.1611 24.2199 20.25 23.9961 20.25C23.7723 20.25 23.5577 20.1611 23.3995 20.0029C23.2412 19.8446 23.1523 19.63 23.1523 19.4062V18.5063C22.5171 18.3766 21.9461 18.0314 21.5361 17.5291C21.1261 17.0269 20.9022 16.3984 20.9023 15.75V15.4688C20.9023 15.245 20.9912 15.0304 21.1495 14.8721C21.3077 14.7139 21.5223 14.625 21.7461 14.625C21.9699 14.625 22.1845 14.7139 22.3427 14.8721C22.5009 15.0304 22.5898 15.245 22.5898 15.4688V15.75C22.5898 16.0484 22.7084 16.3345 22.9193 16.5455C23.1303 16.7565 23.4165 16.875 23.7148 16.875H24.2773C24.5757 16.875 24.8619 16.7565 25.0728 16.5455C25.2838 16.3345 25.4023 16.0484 25.4023 15.75V15.5194C25.4023 15.2452 25.3021 14.9805 25.1206 14.775C24.9391 14.5695 24.6889 14.4374 24.4168 14.4034L23.3661 14.2717C22.686 14.1868 22.0603 13.8564 21.6067 13.3426C21.153 12.8289 20.9025 12.1671 20.9023 11.4818V11.25C20.9022 10.6016 21.1261 9.97313 21.5361 9.47087C21.9461 8.9686 22.5171 8.62342 23.1523 8.49375V7.59375C23.1523 7.36997 23.2412 7.15536 23.3995 6.99713C23.5577 6.83889 23.7723 6.75 23.9961 6.75Z" fill="#402A32"/>
<path d="M18.0889 29.25C10.2139 29.25 10.2139 21.375 10.2139 21.375H25.9639C25.9639 21.375 25.9639 29.25 18.0889 29.25Z" fill="url(#paint8_radial_12_2741)"/>
<g filter="url(#filter0_d_12_2741)">
<path d="M18.1067 34.875C23.7317 34.875 23.5855 27.9 23.7317 26.7188C23.8442 25.7625 23.338 25.2788 22.7867 24.9525C22.2355 24.6263 20.5817 24.3225 18.1067 24.3225C15.6317 24.3225 13.9892 24.6263 13.4267 24.9525C12.8642 25.2788 12.358 25.7625 12.4817 26.7188C12.628 27.9 12.4817 34.875 18.1067 34.875Z" fill="url(#paint9_radial_12_2741)"/>
</g>
<g opacity="0.5" filter="url(#filter1_f_12_2741)">
<path d="M20.3398 29.8125C21.4648 29.25 22.5898 28.125 22.5898 26.4375" stroke="#71FCB2"/>
</g>
<path d="M25.8064 22.9838C25.9076 22.4663 25.9639 21.9262 25.9639 21.375H10.2139C10.2139 21.9262 10.2701 22.455 10.3714 22.9838H25.8064Z" fill="url(#paint10_linear_12_2741)"/>
<path fill-rule="evenodd" clip-rule="evenodd" d="M17.9197 34.8727C17.5575 34.8218 17.2084 34.7019 16.8914 34.5195C14.9789 33.4147 14.7247 30.2782 16.3222 27.5107C17.2188 25.9582 18.508 24.8512 19.804 24.3754C21.3397 24.4766 22.3735 24.7072 22.7864 24.9525C23.3377 25.2787 23.8439 25.7625 23.7314 26.7187C23.7143 26.8868 23.7011 27.0552 23.692 27.2239C23.5987 28.6009 23.3872 31.761 21.5624 33.5599C21.0202 34.0256 20.4374 34.3811 19.8524 34.6095C19.2291 34.8122 18.5745 34.9014 17.9197 34.8727Z" fill="url(#paint11_radial_12_2741)"/>
<path fill-rule="evenodd" clip-rule="evenodd" d="M18.0898 25.3125C18.239 25.3125 18.3821 25.3718 18.4876 25.4773C18.5931 25.5827 18.6523 25.7258 18.6523 25.875V26.4375C18.6523 26.4688 18.6497 26.5 18.6445 26.5309C18.9755 26.6461 19.2624 26.8614 19.4654 27.1471C19.6684 27.4328 19.7774 27.7745 19.7773 28.125C19.7773 28.2742 19.7181 28.4173 19.6126 28.5227C19.5071 28.6282 19.364 28.6875 19.2148 28.6875C19.0657 28.6875 18.9226 28.6282 18.8171 28.5227C18.7116 28.4173 18.6523 28.2742 18.6523 28.125C18.6523 27.9758 18.5931 27.8327 18.4876 27.7273C18.3821 27.6218 18.239 27.5625 18.0898 27.5625H18.0077C17.8996 27.5627 17.7946 27.5994 17.7099 27.6666C17.6252 27.7339 17.5657 27.8278 17.541 27.933C17.5162 28.0383 17.5278 28.1489 17.5737 28.2468C17.6196 28.3447 17.6972 28.4243 17.794 28.4726L18.8897 29.0216C19.1765 29.1647 19.414 29.3905 19.5714 29.6697C19.7288 29.9489 19.799 30.2689 19.773 30.5884C19.747 30.9079 19.6259 31.2123 19.4254 31.4624C19.2249 31.7125 18.9541 31.8968 18.6478 31.9916C18.6512 32.0141 18.6523 32.0377 18.6523 32.0625V32.625C18.6523 32.7742 18.5931 32.9173 18.4876 33.0227C18.3821 33.1282 18.239 33.1875 18.0898 33.1875C17.9407 33.1875 17.7976 33.1282 17.6921 33.0227C17.5866 32.9173 17.5273 32.7742 17.5273 32.625V32.0625C17.5273 32.031 17.5296 31.9995 17.5352 31.9691C17.2042 31.8539 16.9173 31.6386 16.7143 31.3529C16.5113 31.0672 16.4023 30.7255 16.4023 30.375C16.4023 30.2258 16.4616 30.0827 16.5671 29.9773C16.6726 29.8718 16.8157 29.8125 16.9648 29.8125C17.114 29.8125 17.2571 29.8718 17.3626 29.9773C17.4681 30.0827 17.5273 30.2258 17.5273 30.375C17.5273 30.5242 17.5866 30.6673 17.6921 30.7727C17.7976 30.8782 17.9407 30.9375 18.0898 30.9375H18.172C18.2801 30.9373 18.385 30.9006 18.4697 30.8334C18.5545 30.7661 18.614 30.6722 18.6387 30.567C18.6634 30.4617 18.6519 30.3511 18.606 30.2532C18.5601 30.1553 18.4825 30.0757 18.3857 30.0274L17.29 29.4784C17.0031 29.3353 16.7657 29.1095 16.6083 28.8303C16.4509 28.5511 16.3806 28.2311 16.4067 27.9116C16.4327 27.5921 16.5538 27.2877 16.7543 27.0376C16.9548 26.7875 17.2256 26.6032 17.5318 26.5084C17.5289 26.4849 17.5274 26.4612 17.5273 26.4375V25.875C17.5273 25.7258 17.5866 25.5827 17.6921 25.4773C17.7976 25.3718 17.9407 25.3125 18.0898 25.3125Z" fill="#402A32"/>
</g>
<defs>
<filter id="filter0_d_12_2741" x="11.4629" y="23.3225" width="15.2842" height="14.5525" filterUnits="userSpaceOnUse" color-interpolation-filters="sRGB">
<feFlood flood-opacity="0" result="BackgroundImageFix"/>
<feColorMatrix in="SourceAlpha" type="matrix" values="0 0 0 0 0 0 0 0 0 0 0 0 0 0 0 0 0 0 127 0" result="hardAlpha"/>
<feOffset dx="1" dy="1"/>
<feGaussianBlur stdDeviation="1"/>
<feComposite in2="hardAlpha" operator="out"/>
<feColorMatrix type="matrix" values="0 0 0 0 0 0 0 0 0 0 0 0 0 0 0 0 0 0 0.24 0"/>
<feBlend mode="normal" in2="BackgroundImageFix" result="effect1_dropShadow_12_2741"/>
<feBlend mode="normal" in="SourceGraphic" in2="effect1_dropShadow_12_2741" result="shape"/>
</filter>
<filter id="filter1_f_12_2741" x="19.1162" y="25.4375" width="4.97363" height="5.8222" filterUnits="userSpaceOnUse" color-interpolation-filters="sRGB">
<feFlood flood-opacity="0" result="BackgroundImageFix"/>
<feBlend mode="normal" in="SourceGraphic" in2="BackgroundImageFix" result="shape"/>
<feGaussianBlur stdDeviation="0.5" result="effect1_foregroundBlur_12_2741"/>
</filter>
<radialGradient id="paint0_radial_12_2741" cx="0" cy="0" r="1" gradientUnits="userSpaceOnUse" gradientTransform="translate(28.7775 10.1245) rotate(132.839) scale(42.1912)">
<stop stop-color="#FFF478"/>
<stop offset="0.475" stop-color="#FFB02E"/>
<stop offset="1" stop-color="#F70A8D"/>
</radialGradient>
<radialGradient id="paint1_radial_12_2741" cx="0" cy="0" r="1" gradientUnits="userSpaceOnUse" gradientTransform="translate(28.776 10.1257) rotate(131.878) scale(43.8173)">
<stop stop-color="#FFF478"/>
<stop offset="0.475" stop-color="#FFB02E"/>
<stop offset="1" stop-color="#F70A8D"/>
</radialGradient>
<radialGradient id="paint2_radial_12_2741" cx="0" cy="0" r="1" gradientUnits="userSpaceOnUse" gradientTransform="translate(18.0891 14.0622) rotate(101.31) scale(20.0774 25.7154)">
<stop offset="0.788" stop-color="#F59639" stop-opacity="0"/>
<stop offset="0.973" stop-color="#FF7DCE"/>
</radialGradient>
<radialGradient id="paint3_radial_12_2741" cx="0" cy="0" r="1" gradientUnits="userSpaceOnUse" gradientTransform="translate(20.3398 15.75) rotate(135) scale(46.1387)">
<stop offset="0.315" stop-opacity="0"/>
<stop offset="1"/>
</radialGradient>
<radialGradient id="paint4_radial_12_2741" cx="0" cy="0" r="1" gradientUnits="userSpaceOnUse" gradientTransform="translate(18.0898 19.1259) rotate(77.692) scale(31.6653)">
<stop offset="0.508" stop-color="#7D6133" stop-opacity="0"/>
<stop offset="1" stop-color="#715B32"/>
</radialGradient>
<radialGradient id="paint5_radial_12_2741" cx="0" cy="0" r="1" gradientUnits="userSpaceOnUse" gradientTransform="translate(18.6523 18.5625) rotate(55.713) scale(14.9777 10.8566)">
<stop stop-color="#FFB849"/>
<stop offset="1" stop-color="#FFB847" stop-opacity="0"/>
</radialGradient>
<radialGradient id="paint6_radial_12_2741" cx="0" cy="0" r="1" gradientUnits="userSpaceOnUse" gradientTransform="translate(23.1523 20.25) rotate(9.86582) scale(13.1317)">
<stop stop-color="#FFA64B"/>
<stop offset="0.9" stop-color="#FFAE46" stop-opacity="0"/>
</radialGradient>
<radialGradient id="paint7_radial_12_2741" cx="0" cy="0" r="1" gradientUnits="userSpaceOnUse" gradientTransform="translate(19.7774 16.8753) rotate(43.971) scale(66.4345)">
<stop offset="0.185" stop-opacity="0"/>
<stop offset="1" stop-opacity="0.4"/>
</radialGradient>
<radialGradient id="paint8_radial_12_2741" cx="0" cy="0" r="1" gradientUnits="userSpaceOnUse" gradientTransform="translate(18.0889 31.0005) rotate(-90) scale(9.625 19.25)">
<stop stop-color="#F70A8D"/>
<stop offset="1" stop-color="#89029C"/>
</radialGradient>
<radialGradient id="paint9_radial_12_2741" cx="0" cy="0" r="1" gradientUnits="userSpaceOnUse" gradientTransform="translate(18.6523 34.3125) rotate(-92.8624) scale(11.2641 19.5817)">
<stop stop-color="#56B7B8"/>
<stop offset="0.392" stop-color="#50F099"/>
<stop offset="0.675" stop-color="#45CD7F"/>
<stop offset="0.832" stop-color="#3BA66E"/>
<stop offset="0.886" stop-color="#477063"/>
</radialGradient>
<linearGradient id="paint10_linear_12_2741" x1="18.0889" y1="21.375" x2="18.0889" y2="22.9838" gradientUnits="userSpaceOnUse">
<stop stop-color="#ECCDFF"/>
<stop offset="1" stop-color="white"/>
</linearGradient>
<radialGradient id="paint11_radial_12_2741" cx="0" cy="0" r="1" gradientUnits="userSpaceOnUse" gradientTransform="translate(21.4645 29.8125) rotate(113.962) scale(5.53998 2.45568)">
<stop stop-color="#72FDB3"/>
<stop offset="0.603" stop-color="#72FDB3" stop-opacity="0"/>
</radialGradient>
<clipPath id="clip0_12_2741">
<rect width="36" height="36" fill="white" transform="translate(0.0898438)"/>
</clipPath>
</defs>
</svg>
