<svg width="43" height="42" viewBox="0 0 43 42" fill="none" xmlns="http://www.w3.org/2000/svg">
<path d="M20.4707 38.0673C20.8086 38.2538 21.1892 38.3493 21.5752 38.3445C21.9612 38.3398 22.3393 38.235 22.6726 38.0403C27.2876 35.4031 35.3047 29.333 38.4531 21.4486C43.0758 11.1819 32.2233 2.98715 24.7239 8.88085C23.941 9.49636 22.9572 10.2007 22.2811 10.8664C21.9747 11.1678 21.4351 11.1987 21.1171 10.9102C20.2286 10.099 18.8366 9.06112 17.9429 8.4572C11.5496 4.1306 -0.084537 9.83373 4.87817 22.0036C6.69637 27.4659 15.3599 35.2139 20.4707 38.0673Z" fill="url(#paint0_radial_9_1810)"/>
<path d="M20.4707 38.0673C20.8086 38.2538 21.1892 38.3493 21.5752 38.3445C21.9612 38.3398 22.3393 38.235 22.6726 38.0403C27.2876 35.4031 35.3047 29.333 38.4531 21.4486C43.0758 11.1819 32.2233 2.98715 24.7239 8.88085C23.941 9.49636 22.9572 10.2007 22.2811 10.8664C21.9747 11.1678 21.4351 11.1987 21.1171 10.9102C20.2286 10.099 18.8366 9.06112 17.9429 8.4572C11.5496 4.1306 -0.084537 9.83373 4.87817 22.0036C6.69637 27.4659 15.3599 35.2139 20.4707 38.0673Z" fill="url(#paint1_radial_9_1810)"/>
<path d="M20.4707 38.0673C20.8086 38.2538 21.1892 38.3493 21.5752 38.3445C21.9612 38.3398 22.3393 38.235 22.6726 38.0403C27.2876 35.4031 35.3047 29.333 38.4531 21.4486C43.0758 11.1819 32.2233 2.98715 24.7239 8.88085C23.941 9.49636 22.9572 10.2007 22.2811 10.8664C21.9747 11.1678 21.4351 11.1987 21.1171 10.9102C20.2286 10.099 18.8366 9.06112 17.9429 8.4572C11.5496 4.1306 -0.084537 9.83373 4.87817 22.0036C6.69637 27.4659 15.3599 35.2139 20.4707 38.0673Z" fill="url(#paint2_radial_9_1810)"/>
<path d="M20.4707 38.0673C20.8086 38.2538 21.1892 38.3493 21.5752 38.3445C21.9612 38.3398 22.3393 38.235 22.6726 38.0403C27.2876 35.4031 35.3047 29.333 38.4531 21.4486C43.0758 11.1819 32.2233 2.98715 24.7239 8.88085C23.941 9.49636 22.9572 10.2007 22.2811 10.8664C21.9747 11.1678 21.4351 11.1987 21.1171 10.9102C20.2286 10.099 18.8366 9.06112 17.9429 8.4572C11.5496 4.1306 -0.084537 9.83373 4.87817 22.0036C6.69637 27.4659 15.3599 35.2139 20.4707 38.0673Z" fill="url(#paint3_radial_9_1810)"/>
<path d="M20.4707 38.0673C20.8086 38.2538 21.1892 38.3493 21.5752 38.3445C21.9612 38.3398 22.3393 38.235 22.6726 38.0403C27.2876 35.4031 35.3047 29.333 38.4531 21.4486C43.0758 11.1819 32.2233 2.98715 24.7239 8.88085C23.941 9.49636 22.9572 10.2007 22.2811 10.8664C21.9747 11.1678 21.4351 11.1987 21.1171 10.9102C20.2286 10.099 18.8366 9.06112 17.9429 8.4572C11.5496 4.1306 -0.084537 9.83373 4.87817 22.0036C6.69637 27.4659 15.3599 35.2139 20.4707 38.0673Z" fill="url(#paint4_linear_9_1810)"/>
<path d="M20.4707 38.0673C20.8086 38.2538 21.1892 38.3493 21.5752 38.3445C21.9612 38.3398 22.3393 38.235 22.6726 38.0403C27.2876 35.4031 35.3047 29.333 38.4531 21.4486C43.0758 11.1819 32.2233 2.98715 24.7239 8.88085C23.941 9.49636 22.9572 10.2007 22.2811 10.8664C21.9747 11.1678 21.4351 11.1987 21.1171 10.9102C20.2286 10.099 18.8366 9.06112 17.9429 8.4572C11.5496 4.1306 -0.084537 9.83373 4.87817 22.0036C6.69637 27.4659 15.3599 35.2139 20.4707 38.0673Z" fill="url(#paint5_linear_9_1810)"/>
<path d="M20.4707 38.0673C20.8086 38.2538 21.1892 38.3493 21.5752 38.3445C21.9612 38.3398 22.3393 38.235 22.6726 38.0403C27.2876 35.4031 35.3047 29.333 38.4531 21.4486C43.0758 11.1819 32.2233 2.98715 24.7239 8.88085C23.941 9.49636 22.9572 10.2007 22.2811 10.8664C21.9747 11.1678 21.4351 11.1987 21.1171 10.9102C20.2286 10.099 18.8366 9.06112 17.9429 8.4572C11.5496 4.1306 -0.084537 9.83373 4.87817 22.0036C6.69637 27.4659 15.3599 35.2139 20.4707 38.0673Z" fill="url(#paint6_radial_9_1810)" fill-opacity="0.6"/>
<g filter="url(#filter0_f_9_1810)">
<path d="M21.3604 14.038V22.8238C21.3604 23.9892 22.7716 24.5416 23.4979 23.6312C25.7449 20.8112 27.5579 17.3847 25.535 14.5852C24.7598 13.5113 23.2738 12.8237 22.0596 13.0426C21.6063 13.1237 21.3604 13.577 21.3604 14.0393V14.038Z" fill="#FA1C56"/>
</g>
<g filter="url(#filter1_f_9_1810)">
<path d="M35.9551 18.532C38.2304 16.3202 38.5881 12.9976 36.7539 11.1109C34.9198 9.22412 31.5885 9.48768 29.3132 11.6995C27.0379 13.9114 26.6802 17.234 28.5143 19.1207C30.3485 21.0074 33.6798 20.7439 35.9551 18.532Z" fill="url(#paint7_radial_9_1810)"/>
</g>
<g filter="url(#filter2_f_9_1810)">
<path d="M31.0277 8.73304C32.2223 8.88322 33.2163 8.80132 33.2479 8.55012C33.2794 8.29892 32.3366 7.97355 31.142 7.82338C29.9474 7.67321 28.9534 7.7551 28.9218 8.0063C28.8902 8.2575 29.8331 8.58287 31.0277 8.73304Z" fill="#FF7383"/>
</g>
<g filter="url(#filter3_f_9_1810)">
<path d="M12.97 8.5808C14.0502 8.56766 14.9241 8.41347 14.9219 8.2364C14.9198 8.05933 14.0424 7.92644 12.9622 7.93959C11.882 7.95273 11.0081 8.10692 11.0102 8.28399C11.0124 8.46105 11.8898 8.59394 12.97 8.5808Z" fill="#FF93BA" fill-opacity="0.5"/>
</g>
<g filter="url(#filter4_f_9_1810)">
<path d="M19.9914 13.2937L20.3945 26.4924C11.5417 17.8804 9.83811 11.8335 13.2311 10.4763C16.4503 9.18859 19.0257 11.2811 19.9914 13.2937Z" fill="url(#paint8_radial_9_1810)"/>
</g>
<g filter="url(#filter5_f_9_1810)">
<path d="M19.3476 12.5211C18.2659 12.3666 17.9311 11.4691 17.8989 11.0403C18.517 11.6841 19.1222 11.7382 19.3476 11.6841V12.5211Z" fill="#FF7383"/>
</g>
<defs>
<filter id="filter0_f_9_1810" x="18.785" y="10.4266" width="10.2025" height="16.2347" filterUnits="userSpaceOnUse" color-interpolation-filters="sRGB">
<feFlood flood-opacity="0" result="BackgroundImageFix"/>
<feBlend mode="normal" in="SourceGraphic" in2="BackgroundImageFix" result="shape"/>
<feGaussianBlur stdDeviation="1.28768" result="effect1_foregroundBlur_9_1810"/>
</filter>
<filter id="filter1_f_9_1810" x="25.4108" y="7.92012" width="14.4465" height="14.3913" filterUnits="userSpaceOnUse" color-interpolation-filters="sRGB">
<feFlood flood-opacity="0" result="BackgroundImageFix"/>
<feBlend mode="normal" in="SourceGraphic" in2="BackgroundImageFix" result="shape"/>
<feGaussianBlur stdDeviation="0.965758" result="effect1_foregroundBlur_9_1810"/>
</filter>
<filter id="filter2_f_9_1810" x="26.3455" y="5.17286" width="9.47835" height="6.21071" filterUnits="userSpaceOnUse" color-interpolation-filters="sRGB">
<feFlood flood-opacity="0" result="BackgroundImageFix"/>
<feBlend mode="normal" in="SourceGraphic" in2="BackgroundImageFix" result="shape"/>
<feGaussianBlur stdDeviation="1.28768" result="effect1_foregroundBlur_9_1810"/>
</filter>
<filter id="filter3_f_9_1810" x="9.07874" y="6.00717" width="7.77465" height="4.50604" filterUnits="userSpaceOnUse" color-interpolation-filters="sRGB">
<feFlood flood-opacity="0" result="BackgroundImageFix"/>
<feBlend mode="normal" in="SourceGraphic" in2="BackgroundImageFix" result="shape"/>
<feGaussianBlur stdDeviation="0.965758" result="effect1_foregroundBlur_9_1810"/>
</filter>
<filter id="filter4_f_9_1810" x="7.74292" y="6.21703" width="16.5146" height="24.1384" filterUnits="userSpaceOnUse" color-interpolation-filters="sRGB">
<feFlood flood-opacity="0" result="BackgroundImageFix"/>
<feBlend mode="normal" in="SourceGraphic" in2="BackgroundImageFix" result="shape"/>
<feGaussianBlur stdDeviation="1.93152" result="effect1_foregroundBlur_9_1810"/>
</filter>
<filter id="filter5_f_9_1810" x="16.6112" y="9.75261" width="4.02409" height="4.05619" filterUnits="userSpaceOnUse" color-interpolation-filters="sRGB">
<feFlood flood-opacity="0" result="BackgroundImageFix"/>
<feBlend mode="normal" in="SourceGraphic" in2="BackgroundImageFix" result="shape"/>
<feGaussianBlur stdDeviation="0.643839" result="effect1_foregroundBlur_9_1810"/>
</filter>
<radialGradient id="paint0_radial_9_1810" cx="0" cy="0" r="1" gradientUnits="userSpaceOnUse" gradientTransform="translate(21.3283 7.72065) rotate(90) scale(29.5966 31.422)">
<stop stop-color="#FC0000"/>
<stop offset="0.528" stop-color="#FF3B79"/>
<stop offset="1" stop-color="#F724B3"/>
</radialGradient>
<radialGradient id="paint1_radial_9_1810" cx="0" cy="0" r="1" gradientUnits="userSpaceOnUse" gradientTransform="translate(30.5248 15.0978) rotate(134.402) scale(27.3821 51.2892)">
<stop offset="0.798" stop-color="#C82092" stop-opacity="0"/>
<stop offset="0.908" stop-color="#C82092"/>
</radialGradient>
<radialGradient id="paint2_radial_9_1810" cx="0" cy="0" r="1" gradientUnits="userSpaceOnUse" gradientTransform="translate(26.6258 23.3724) rotate(-158.663) scale(29.2934 41.4104)">
<stop offset="0.41" stop-color="#B91D43" stop-opacity="0"/>
<stop offset="0.834" stop-color="#B91D43"/>
</radialGradient>
<radialGradient id="paint3_radial_9_1810" cx="0" cy="0" r="1" gradientUnits="userSpaceOnUse" gradientTransform="translate(20.9123 18.2564) rotate(90) scale(25.495)">
<stop offset="0.671" stop-color="#FF7AF2" stop-opacity="0"/>
<stop offset="0.934" stop-color="#FFBCE6"/>
</radialGradient>
<linearGradient id="paint4_linear_9_1810" x1="23.7259" y1="21.24" x2="34.0441" y2="33.5193" gradientUnits="userSpaceOnUse">
<stop offset="0.694" stop-color="#FF7AF2" stop-opacity="0"/>
<stop offset="0.934" stop-color="#FFBCE6"/>
</linearGradient>
<linearGradient id="paint5_linear_9_1810" x1="22.4472" y1="21.7512" x2="10.3392" y2="35.3941" gradientUnits="userSpaceOnUse">
<stop offset="0.694" stop-color="#FF7AF2" stop-opacity="0"/>
<stop offset="0.934" stop-color="#FFBCE6"/>
</linearGradient>
<radialGradient id="paint6_radial_9_1810" cx="0" cy="0" r="1" gradientUnits="userSpaceOnUse" gradientTransform="translate(24.5011 17.0718) rotate(164.618) scale(22.1669 23.4102)">
<stop offset="0.802" stop-color="#FF73A6" stop-opacity="0"/>
<stop offset="1" stop-color="#FF93BA"/>
</radialGradient>
<radialGradient id="paint7_radial_9_1810" cx="0" cy="0" r="1" gradientUnits="userSpaceOnUse" gradientTransform="translate(36.6369 11.0008) rotate(128.737) scale(9.38893 12.4848)">
<stop stop-color="#FF7383"/>
<stop offset="1" stop-color="#FF7383" stop-opacity="0"/>
</radialGradient>
<radialGradient id="paint8_radial_9_1810" cx="0" cy="0" r="1" gradientUnits="userSpaceOnUse" gradientTransform="translate(21.923 18.2873) rotate(-135.591) scale(16.3356 28.9985)">
<stop stop-color="#FF6274"/>
<stop offset="1" stop-color="#FF6274" stop-opacity="0"/>
</radialGradient>
</defs>
</svg>
