<svg width="36" height="36" viewBox="0 0 36 36" fill="none" xmlns="http://www.w3.org/2000/svg">
<g clip-path="url(#clip0_9_2062)">
<mask id="mask0_9_2062" style="mask-type:luminance" maskUnits="userSpaceOnUse" x="0" y="0" width="36" height="36">
<path d="M0 0H36V36H0V0Z" fill="white"/>
</mask>
<g mask="url(#mask0_9_2062)">
<path d="M17.9989 33.7477C28.4996 33.7477 33.7477 26.6963 33.7477 17.9978C33.7477 9.3015 28.4996 2.25 17.9978 2.25C7.49813 2.25 2.25 9.3015 2.25 17.9989C2.25 26.6962 7.497 33.7477 17.9989 33.7477Z" fill="url(#paint0_radial_9_2062)"/>
<path d="M17.9989 33.7477C28.4996 33.7477 33.7477 26.6963 33.7477 17.9978C33.7477 9.3015 28.4996 2.25 17.9978 2.25C7.49813 2.25 2.25 9.3015 2.25 17.9989C2.25 26.6962 7.497 33.7477 17.9989 33.7477Z" fill="url(#paint1_radial_9_2062)"/>
<path d="M17.9989 33.7477C28.4996 33.7477 33.7477 26.6963 33.7477 17.9978C33.7477 9.3015 28.4996 2.25 17.9978 2.25C7.49813 2.25 2.25 9.3015 2.25 17.9989C2.25 26.6962 7.497 33.7477 17.9989 33.7477Z" fill="url(#paint2_radial_9_2062)"/>
<path d="M17.9989 33.7477C28.4996 33.7477 33.7477 26.6963 33.7477 17.9978C33.7477 9.3015 28.4996 2.25 17.9978 2.25C7.49813 2.25 2.25 9.3015 2.25 17.9989C2.25 26.6962 7.497 33.7477 17.9989 33.7477Z" fill="url(#paint3_radial_9_2062)" fill-opacity="0.6"/>
<path d="M17.9989 33.7477C28.4996 33.7477 33.7477 26.6963 33.7477 17.9978C33.7477 9.3015 28.4996 2.25 17.9978 2.25C7.49813 2.25 2.25 9.3015 2.25 17.9989C2.25 26.6962 7.497 33.7477 17.9989 33.7477Z" fill="url(#paint4_radial_9_2062)"/>
<path d="M17.9989 33.7477C28.4996 33.7477 33.7477 26.6963 33.7477 17.9978C33.7477 9.3015 28.4996 2.25 17.9978 2.25C7.49813 2.25 2.25 9.3015 2.25 17.9989C2.25 26.6962 7.497 33.7477 17.9989 33.7477Z" fill="url(#paint5_radial_9_2062)"/>
<path d="M17.9989 33.7477C28.4996 33.7477 33.7477 26.6963 33.7477 17.9978C33.7477 9.3015 28.4996 2.25 17.9978 2.25C7.49813 2.25 2.25 9.3015 2.25 17.9989C2.25 26.6962 7.497 33.7477 17.9989 33.7477Z" fill="url(#paint6_radial_9_2062)"/>
<path d="M17.9989 33.7477C28.4996 33.7477 33.7477 26.6963 33.7477 17.9978C33.7477 9.3015 28.4996 2.25 17.9978 2.25C7.49813 2.25 2.25 9.3015 2.25 17.9989C2.25 26.6962 7.497 33.7477 17.9989 33.7477Z" fill="url(#paint7_radial_9_2062)"/>
<path opacity="0.5" d="M8.4375 25.875C10.3769 25.875 12.2369 25.1046 13.6082 23.7332C14.9796 22.3619 15.75 20.5019 15.75 18.5625C15.75 16.6231 14.9796 14.7631 13.6082 13.3918C12.2369 12.0204 10.3769 11.25 8.4375 11.25C6.4981 11.25 4.63814 12.0204 3.26678 13.3918C1.89542 14.7631 1.125 16.6231 1.125 18.5625C1.125 20.5019 1.89542 22.3619 3.26678 23.7332C4.63814 25.1046 6.4981 25.875 8.4375 25.875Z" fill="url(#paint8_radial_9_2062)"/>
<path opacity="0.5" d="M27.5625 25.875C29.5019 25.875 31.3619 25.1046 32.7332 23.7332C34.1046 22.3619 34.875 20.5019 34.875 18.5625C34.875 16.6231 34.1046 14.7631 32.7332 13.3918C31.3619 12.0204 29.5019 11.25 27.5625 11.25C25.6231 11.25 23.7631 12.0204 22.3918 13.3918C21.0204 14.7631 20.25 16.6231 20.25 18.5625C20.25 20.5019 21.0204 22.3619 22.3918 23.7332C23.7631 25.1046 25.6231 25.875 27.5625 25.875Z" fill="url(#paint9_radial_9_2062)"/>
<g opacity="0.5" filter="url(#filter0_f_9_2062)">
<path d="M8.4375 15.1875C8.4375 15.1875 8.71875 12.9375 11.25 12.9375C13.7812 12.9375 14.0625 15.1875 14.0625 15.1875" stroke="#9A4609" stroke-width="2" stroke-linecap="round"/>
</g>
<g opacity="0.5" filter="url(#filter1_f_9_2062)">
<path d="M20.8125 15.1875C20.8125 15.1875 21.375 12.9375 23.625 12.9375C25.875 12.9375 26.4375 15.1875 26.4375 15.1875" stroke="#9A4609" stroke-width="2" stroke-linecap="round"/>
</g>
<path d="M9 14.625C9 14.625 9.28125 12.375 11.8125 12.375C14.3438 12.375 14.625 14.625 14.625 14.625" stroke="#43273B" stroke-width="2" stroke-linecap="round" stroke-linejoin="round"/>
<g opacity="0.26" filter="url(#filter2_f_9_2062)">
<path d="M9.28125 14.3438C9.28125 14.3438 9.5625 12.0938 12.0938 12.0938C14.625 12.0938 14.9062 14.3438 14.9062 14.3438" stroke="white" stroke-width="0.75" stroke-linecap="round" stroke-linejoin="round"/>
</g>
<path d="M21.375 14.625C21.375 14.625 21.9375 12.375 24.1875 12.375C26.4375 12.375 27 14.625 27 14.625" stroke="#43273B" stroke-width="2" stroke-linecap="round" stroke-linejoin="round"/>
<g opacity="0.26" filter="url(#filter3_f_9_2062)">
<path d="M21.6562 14.3438C21.6562 14.3438 21.9375 12.0938 24.4688 12.0938C27 12.0938 27.2812 14.3438 27.2812 14.3438" stroke="white" stroke-width="0.75" stroke-linecap="round" stroke-linejoin="round"/>
</g>
<path d="M7.3125 10.6875C7.68713 9.5625 9.1125 7.3125 11.8125 7.3125" stroke="url(#paint10_linear_9_2062)" stroke-linecap="round" stroke-linejoin="round"/>
<path d="M28.6875 10.6875C28.3129 9.5625 26.8875 7.3125 24.1875 7.3125" stroke="url(#paint11_linear_9_2062)" stroke-linecap="round" stroke-linejoin="round"/>
<path d="M11.25 21.375C11.8125 22.1254 14.0625 24.1875 18 24.1875C21.9375 24.1875 24.1875 22.1254 24.75 21.375" stroke="url(#paint12_radial_9_2062)" stroke-width="2" stroke-linecap="round"/>
</g>
</g>
<defs>
<filter id="filter0_f_9_2062" x="5.9375" y="10.4375" width="10.625" height="7.25009" filterUnits="userSpaceOnUse" color-interpolation-filters="sRGB">
<feFlood flood-opacity="0" result="BackgroundImageFix"/>
<feBlend mode="normal" in="SourceGraphic" in2="BackgroundImageFix" result="shape"/>
<feGaussianBlur stdDeviation="0.75" result="effect1_foregroundBlur_9_2062"/>
</filter>
<filter id="filter1_f_9_2062" x="18.3125" y="10.4375" width="10.625" height="7.25024" filterUnits="userSpaceOnUse" color-interpolation-filters="sRGB">
<feFlood flood-opacity="0" result="BackgroundImageFix"/>
<feBlend mode="normal" in="SourceGraphic" in2="BackgroundImageFix" result="shape"/>
<feGaussianBlur stdDeviation="0.75" result="effect1_foregroundBlur_9_2062"/>
</filter>
<filter id="filter2_f_9_2062" x="7.40625" y="10.2188" width="9.375" height="6.00003" filterUnits="userSpaceOnUse" color-interpolation-filters="sRGB">
<feFlood flood-opacity="0" result="BackgroundImageFix"/>
<feBlend mode="normal" in="SourceGraphic" in2="BackgroundImageFix" result="shape"/>
<feGaussianBlur stdDeviation="0.75" result="effect1_foregroundBlur_9_2062"/>
</filter>
<filter id="filter3_f_9_2062" x="19.7812" y="10.2188" width="9.375" height="6.00003" filterUnits="userSpaceOnUse" color-interpolation-filters="sRGB">
<feFlood flood-opacity="0" result="BackgroundImageFix"/>
<feBlend mode="normal" in="SourceGraphic" in2="BackgroundImageFix" result="shape"/>
<feGaussianBlur stdDeviation="0.75" result="effect1_foregroundBlur_9_2062"/>
</filter>
<radialGradient id="paint0_radial_9_2062" cx="0" cy="0" r="1" gradientUnits="userSpaceOnUse" gradientTransform="translate(28.6877 10.1245) rotate(132.839) scale(42.1912)">
<stop stop-color="#FFF478"/>
<stop offset="0.475" stop-color="#FFB02E"/>
<stop offset="1" stop-color="#F70A8D"/>
</radialGradient>
<radialGradient id="paint1_radial_9_2062" cx="0" cy="0" r="1" gradientUnits="userSpaceOnUse" gradientTransform="translate(28.6862 10.1257) rotate(131.878) scale(43.8173)">
<stop stop-color="#FFF478"/>
<stop offset="0.475" stop-color="#FFB02E"/>
<stop offset="1" stop-color="#F70A8D"/>
</radialGradient>
<radialGradient id="paint2_radial_9_2062" cx="0" cy="0" r="1" gradientUnits="userSpaceOnUse" gradientTransform="translate(17.9992 14.0622) rotate(101.31) scale(20.0774 25.7154)">
<stop offset="0.788" stop-color="#F59639" stop-opacity="0"/>
<stop offset="0.973" stop-color="#FF7DCE"/>
</radialGradient>
<radialGradient id="paint3_radial_9_2062" cx="0" cy="0" r="1" gradientUnits="userSpaceOnUse" gradientTransform="translate(20.25 15.75) rotate(135) scale(46.1387)">
<stop offset="0.315" stop-opacity="0"/>
<stop offset="1"/>
</radialGradient>
<radialGradient id="paint4_radial_9_2062" cx="0" cy="0" r="1" gradientUnits="userSpaceOnUse" gradientTransform="translate(17.9999 19.1259) rotate(77.692) scale(31.6653)">
<stop offset="0.508" stop-color="#7D6133" stop-opacity="0"/>
<stop offset="1" stop-color="#715B32"/>
</radialGradient>
<radialGradient id="paint5_radial_9_2062" cx="0" cy="0" r="1" gradientUnits="userSpaceOnUse" gradientTransform="translate(18.5625 18.5625) rotate(55.713) scale(14.9777 10.8566)">
<stop stop-color="#FFB849"/>
<stop offset="1" stop-color="#FFB847" stop-opacity="0"/>
</radialGradient>
<radialGradient id="paint6_radial_9_2062" cx="0" cy="0" r="1" gradientUnits="userSpaceOnUse" gradientTransform="translate(23.0625 20.25) rotate(9.86582) scale(13.1317)">
<stop stop-color="#FFA64B"/>
<stop offset="0.9" stop-color="#FFAE46" stop-opacity="0"/>
</radialGradient>
<radialGradient id="paint7_radial_9_2062" cx="0" cy="0" r="1" gradientUnits="userSpaceOnUse" gradientTransform="translate(19.6876 16.8753) rotate(43.971) scale(66.4345)">
<stop offset="0.185" stop-opacity="0"/>
<stop offset="1" stop-opacity="0.4"/>
</radialGradient>
<radialGradient id="paint8_radial_9_2062" cx="0" cy="0" r="1" gradientUnits="userSpaceOnUse" gradientTransform="translate(8.44312 18.5636) scale(7.30673)">
<stop stop-color="#F70A8D" stop-opacity="0.59"/>
<stop offset="1" stop-color="#FF6DC6" stop-opacity="0"/>
</radialGradient>
<radialGradient id="paint9_radial_9_2062" cx="0" cy="0" r="1" gradientUnits="userSpaceOnUse" gradientTransform="translate(27.5681 18.5636) scale(7.30673)">
<stop stop-color="#F70A8D" stop-opacity="0.59"/>
<stop offset="1" stop-color="#FF6DC6" stop-opacity="0"/>
</radialGradient>
<linearGradient id="paint10_linear_9_2062" x1="7.68712" y1="11.7" x2="7.68712" y2="9.675" gradientUnits="userSpaceOnUse">
<stop offset="0.03" stop-color="#524049"/>
<stop offset="1" stop-color="#4A2C42"/>
</linearGradient>
<linearGradient id="paint11_linear_9_2062" x1="28.3129" y1="11.7" x2="28.3129" y2="9.675" gradientUnits="userSpaceOnUse">
<stop offset="0.03" stop-color="#524049"/>
<stop offset="1" stop-color="#4A2C42"/>
</linearGradient>
<radialGradient id="paint12_radial_9_2062" cx="0" cy="0" r="1" gradientUnits="userSpaceOnUse" gradientTransform="translate(20.1082 19.035) rotate(90) scale(12.9257)">
<stop offset="0.103" stop-color="#482641"/>
<stop offset="0.299" stop-color="#503A4A"/>
<stop offset="0.556" stop-color="#483637"/>
</radialGradient>
<clipPath id="clip0_9_2062">
<rect width="36" height="36" fill="white"/>
</clipPath>
</defs>
</svg>
