<svg width="429" height="492" xmlns="http://www.w3.org/2000/svg">

 <g>
  <title>background</title>
  <rect fill="none" id="canvas_background" height="494" width="431" y="-1" x="-1"/>
 </g>
 <g>
  <title>Layer 1</title>
  <g fill="#e0e0d1" id="svg_22">
   <circle transform="matrix(6.48295, 0, 0, 6.45186, -6.50761, -71.2958)" id="svg_8" class="fill-4f5d73" r="31.999847" fill="#a3c7ff" cy="49.013016" cx="33.663095"/>
   <path id="svg_10" class="fill-c75c5c" fill="#228de5" d="m194.220201,264.519971c-8.104162,8.104162 -31.703106,65.31246 -31.703106,65.31246c-3.46354,6.291663 1.718749,10.859368 13.5052,4.874997l42.348932,-23.098944c22.817694,-12.682284 27.22915,-15.994782 26.927067,-41.812474l-4.244789,-30.484356c-1.453124,-10.442702 -9.270828,-12.359367 -17.374989,-4.255206l-29.458315,29.463524zm-26.166651,-26.166651c-8.104162,8.104162 -65.31246,31.703106 -65.31246,31.703106c-6.291663,3.46354 -10.859368,-1.718749 -4.874997,-13.5052l23.098944,-42.348932c12.682284,-22.817694 15.994782,-27.22915 41.812474,-26.927067l30.484356,4.244789c10.442702,1.453124 12.359367,9.270828 4.255206,17.374989l-29.463524,29.458315z"/>
   <path id="svg_11" class="fill-231f20" opacity="0.2" fill="#231F20" d="m137.715027,274.22309c26.427067,-26.427067 48.630179,-18.364572 48.630179,-18.364572s8.067703,22.203111 -18.364572,48.630179s-69.223916,45.624972 -72.557247,42.291641c-3.229165,-3.234373 15.859365,-46.13018 42.291641,-72.557247z"/>
   <path id="svg_12" class="fill-e0995e" fill="#3ba1fe" d="m137.715027,263.80643c26.427067,-26.427067 48.630179,-18.364572 48.630179,-18.364572s8.067703,22.203111 -18.364572,48.630179s-69.223916,45.624972 -72.557247,42.291641c-3.229165,-3.234373 15.859365,-46.13018 42.291641,-72.557247z"/>
   <path id="svg_13" class="fill-f5cf87" fill="#a3c7ff" d="m159.808763,241.707485c26.427067,-26.427067 48.630179,-18.364572 48.630179,-18.364572s8.067703,22.203111 -18.364572,48.630179s-69.223916,45.624972 -72.557247,42.291641c-3.229165,-3.229165 15.864574,-46.13018 42.291641,-72.557247z"/>
   <path id="svg_15" class="fill-e0e0d1 fill-4f5d71" fill="#3ba1fe" d="m254.313914,250.957479c-40.677059,40.677059 -103.036395,29.546857 -103.036395,29.546857s-11.130202,-62.354129 29.546857,-103.036395s102.307229,-45.005181 110.400974,-36.911436c7.848954,7.848954 3.770831,69.723916 -36.911436,110.400974z"/>
   <path id="svg_17" class="fill-c75c5c" fill="#228de5" d="m136.548361,302.603281c-4.067706,4.067706 -6.979162,7.749995 -11.046868,3.682289c-4.067706,-4.067706 -0.385416,-6.979162 3.682289,-11.046868l51.55726,-66.291626c4.067706,-4.067706 21.713528,-7.749995 25.781234,-3.682289c4.067706,4.067706 0.385416,21.713528 -3.682289,25.781234l-66.291626,51.55726z"/>
   <circle id="svg_20" class="fill-4f5d73" r="3.999989" transform="rotate(-45.001, 230.165, 200.601) matrix(5.20833, 0, 0, 5.20833, -123.659, 86.8522)" fill="#a3c7ff" cy="21.839858" cx="67.934317"/>
   <circle id="svg_21" class="fill-4f5d73" r="1.999996" transform="rotate(-45.001, 263.987, 171.944) matrix(5.20833, 0, 0, 5.20833, -113.801, 110.658)" fill="#a3c7ff" cy="11.766855" cx="72.535316"/>
  </g>
 </g>
</svg>