<?xml version="1.0" standalone="no"?>
<!DOCTYPE svg PUBLIC "-//W3C//DTD SVG 20010904//EN"
 "http://www.w3.org/TR/2001/REC-SVG-20010904/DTD/svg10.dtd">
<svg version="1.0" xmlns="http://www.w3.org/2000/svg"
 width="92.000000pt" height="92.000000pt" viewBox="0 0 92.000000 92.000000"
 preserveAspectRatio="xMidYMid meet">
<metadata>
Created by potrace 1.14, written by Peter Selinger 2001-2017
</metadata>
<g transform="translate(0.000000,92.000000) scale(0.100000,-0.100000)"
fill="#000000" stroke="none">
<path d="M455 911 c-4 -7 -4 -15 -1 -18 3 -3 -2 -19 -12 -35 -15 -25 -15 -30
-2 -38 12 -8 12 -10 1 -10 -11 0 -11 -3 0 -17 8 -9 9 -14 3 -10 -7 4 -14 -2
-18 -16 -3 -12 -19 -31 -35 -41 -32 -22 -58 -61 -71 -106 -5 -17 -8 -30 -7
-30 1 0 26 7 55 14 59 16 180 13 213 -4 29 -16 34 -6 21 38 -7 23 -30 56 -57
81 -25 23 -45 49 -45 57 0 7 -6 14 -12 14 -9 0 -9 3 -3 8 13 9 10 36 -8 86 -9
24 -17 34 -22 27z m12 -123 c-3 -7 -5 -2 -5 12 0 14 2 19 5 13 2 -7 2 -19 0
-25z"/>
<path d="M349 585 c-59 -19 -81 -44 -77 -87 4 -44 21 -39 29 9 6 38 6 38 8 6
2 -49 31 -44 32 5 l2 37 6 -33 c8 -44 25 -41 32 5 l6 38 2 -37 c1 -27 6 -38
16 -38 11 0 15 12 16 43 l2 42 6 -38 c8 -52 25 -51 32 3 l6 45 1 -41 c3 -60
30 -68 35 -11 l4 42 1 -42 c3 -56 29 -60 35 -5 l4 37 1 -43 c1 -30 6 -42 15
-39 6 2 13 13 13 25 2 37 6 38 13 4 6 -35 26 -45 26 -13 0 11 3 22 7 26 4 4 6
-7 6 -24 -2 -56 20 -56 28 -1 6 37 -7 56 -55 77 -51 22 -195 27 -252 8z"/>
<path d="M390 473 c-60 -10 -128 -34 -144 -52 -24 -27 -13 -61 20 -61 14 0 23
3 21 8 -3 4 -1 16 4 27 7 19 8 19 8 -2 1 -34 31 -29 32 5 0 26 0 27 10 4 10
-27 29 -21 29 9 0 11 5 17 10 14 6 -4 7 -11 4 -17 -4 -6 1 -8 12 -6 11 2 19
11 19 20 0 9 4 20 8 24 4 4 7 0 7 -9 0 -25 19 -21 30 6 9 22 9 22 9 1 1 -30
31 -40 32 -11 1 21 1 21 8 -2 8 -28 31 -41 31 -17 0 9 5 16 10 16 6 0 10 -6 9
-12 -3 -27 2 -39 14 -35 6 2 13 9 13 15 3 26 7 25 13 -3 7 -35 23 -36 33 -3 6
22 6 21 7 -4 1 -23 6 -28 26 -28 21 0 25 5 25 30 0 34 -23 53 -85 69 -45 11
-177 20 -215 14z"/>
<path d="M372 379 c-40 -16 -94 -30 -120 -32 -35 -2 -48 -7 -50 -20 -3 -16 18
-17 263 -17 248 0 266 1 263 18 -2 13 -15 18 -56 20 -29 1 -86 16 -128 32 -41
17 -80 30 -87 29 -6 0 -45 -13 -85 -30z m132 -14 c20 -8 36 -17 36 -19 0 -1
-39 -3 -87 -4 -86 -1 -87 -1 -50 13 21 7 41 16 44 19 9 9 17 8 57 -9z"/>
<path d="M176 283 c-10 -11 -7 -93 4 -93 6 0 10 7 10 15 0 9 10 20 23 24 18 7
26 4 40 -15 33 -42 87 -26 87 26 0 34 -31 53 -65 40 -14 -5 -25 -15 -25 -22 0
-7 -5 -5 -12 5 -13 18 -52 30 -62 20z m39 -23 c3 -5 -1 -10 -10 -10 -9 0 -13
5 -10 10 3 6 8 10 10 10 2 0 7 -4 10 -10z m105 -25 c0 -15 -27 -28 -41 -19
-13 7 -11 28 3 42 13 13 38 -2 38 -23z"/>
<path d="M359 288 c-5 -12 -7 -57 -3 -75 4 -19 10 -23 44 -21 l40 1 0 49 c0
35 -4 48 -12 46 -7 -3 -13 -20 -13 -39 0 -55 -33 -55 -37 -1 -2 27 -14 53 -19
40z"/>
<path d="M455 280 c-3 -5 0 -10 6 -12 5 -2 11 -19 13 -38 4 -51 26 -51 26 0 0
34 3 41 18 38 12 -2 17 -13 17 -37 0 -19 6 -36 13 -38 15 -6 17 83 2 92 -5 3
-10 1 -10 -5 0 -6 -5 -8 -12 -3 -18 11 -67 13 -73 3z"/>
<path d="M598 283 c-22 -5 -35 -50 -21 -72 14 -23 57 -25 74 -5 13 16 12 17
-12 11 -18 -5 -31 -2 -39 8 -17 20 -2 38 26 32 31 -6 41 9 15 22 -11 6 -21 10
-23 10 -2 -1 -11 -3 -20 -6z"/>
<path d="M698 283 c-34 -9 -36 -77 -3 -89 53 -21 97 44 55 78 -12 10 -25 17
-29 17 -3 -1 -14 -3 -23 -6z m42 -42 c0 -27 -19 -36 -37 -18 -18 18 -9 37 18
37 12 0 19 -7 19 -19z"/>
<path d="M80 50 c0 -27 5 -50 10 -50 6 0 10 8 10 18 1 15 2 15 16 -3 14 -19
16 -19 28 -2 15 19 27 23 24 6 -2 -6 3 -14 10 -16 8 -3 12 10 12 46 0 62 -21
69 -42 16 l-14 -35 -13 35 c-19 54 -41 46 -41 -15z"/>
<path d="M207 93 c-3 -7 -2 -62 2 -85 2 -12 51 -9 51 2 0 6 -7 10 -15 10 -8 0
-15 5 -15 10 0 6 7 10 15 10 8 0 15 5 15 10 0 6 -7 10 -15 10 -8 0 -15 5 -15
10 0 6 7 10 15 10 8 0 15 5 15 10 0 12 -47 14 -53 3z"/>
<path d="M270 88 c0 -4 7 -8 15 -8 11 0 15 -11 15 -40 0 -22 5 -40 10 -40 6 0
10 16 10 35 0 22 6 38 15 41 8 4 12 10 9 15 -7 11 -74 8 -74 -3z"/>
<path d="M365 55 c-19 -52 -16 -62 15 -45 16 9 25 9 36 -1 22 -18 25 -7 11 42
-18 60 -39 62 -62 4z m40 -5 c3 -5 1 -10 -4 -10 -6 0 -11 5 -11 10 0 6 2 10 4
10 3 0 8 -4 11 -10z"/>
<path d="M448 94 c-10 -9 27 -94 40 -94 7 0 21 19 32 43 20 46 21 46 25 2 2
-17 3 -33 4 -37 2 -12 51 -9 51 2 0 6 -7 10 -15 10 -8 0 -15 5 -15 10 0 6 7
10 15 10 8 0 15 5 15 10 0 6 -7 10 -15 10 -8 0 -15 5 -15 10 0 6 7 10 15 10 8
0 15 5 15 11 0 6 -17 8 -42 6 -36 -3 -44 -8 -54 -33 l-12 -29 -11 27 c-10 27
-25 41 -33 32z"/>
<path d="M620 50 c0 -27 5 -50 10 -50 6 0 10 7 10 17 0 15 1 15 18 0 26 -24
27 -22 29 26 1 45 -8 57 -44 57 -21 0 -23 -5 -23 -50z m45 20 c3 -5 -1 -10 -9
-10 -9 0 -16 5 -16 10 0 6 4 10 9 10 6 0 13 -4 16 -10z"/>
<path d="M711 86 c-9 -11 -8 -18 4 -30 9 -9 21 -16 26 -16 5 0 9 -5 9 -11 0
-6 -9 -8 -20 -4 -11 3 -20 2 -20 -4 0 -18 41 -24 58 -8 13 13 13 19 2 31 -7 9
-19 16 -27 16 -8 0 -12 4 -9 9 3 5 16 7 29 3 20 -5 21 -4 8 11 -16 21 -44 22
-60 3z"/>
<path d="M797 93 c-4 -3 -7 -26 -7 -50 0 -41 1 -43 30 -43 35 0 40 15 8 25
l-23 7 25 8 c22 6 23 8 8 15 -22 9 -24 25 -3 25 8 0 15 5 15 10 0 11 -43 14
-53 3z"/>
</g>
</svg>
