<svg width="167" height="32" viewBox="0 0 167 32" fill="none" xmlns="http://www.w3.org/2000/svg">
<path d="M47.1239 22.871C44.0688 22.871 42.1886 20.1179 42.1886 16.3242C42.1886 12.5639 43.7666 9.77736 47.1239 9.77736C49.3062 9.77736 50.7498 11.1874 51.0184 13.034H56.1216C55.853 10.7174 54.8122 8.70301 53.0328 7.36008C51.5556 6.21858 49.5412 5.54712 47.1575 5.54712C41.0136 5.54712 37.0184 10.2138 37.0184 16.3242C37.0184 22.5016 41.1479 27.0341 47.1911 27.0341C50.0784 27.0341 52.2271 26.2283 53.7714 24.6839C55.1815 23.341 56.1216 21.4609 56.2559 19.4129H51.1527C50.9177 21.4273 49.4069 22.871 47.1239 22.871Z" fill="#222831"/>
<path d="M65.6558 11.4229C60.922 11.4229 57.7661 14.8138 57.7661 19.2454C57.7661 23.6771 60.922 27.068 65.6558 27.068C70.4232 27.068 73.512 23.6771 73.512 19.2454C73.512 14.8138 70.3897 11.4229 65.6558 11.4229ZM65.6222 23.7107C63.5743 23.7107 62.4999 21.9313 62.4999 19.2454C62.4999 16.5596 63.5743 14.7466 65.6222 14.7466C67.6702 14.7466 68.7781 16.5596 68.7781 19.2454C68.7446 21.9313 67.6702 23.7107 65.6222 23.7107Z" fill="#222831"/>
<path d="M80.1936 9.84433C81.2008 8.83713 81.2008 7.22561 80.1936 6.21841C79.1864 5.21121 77.5749 5.21121 76.5677 6.21841C75.5605 7.22561 75.5605 8.83713 76.5677 9.84433C77.5413 10.8515 79.1864 10.8515 80.1936 9.84433Z" fill="#222831"/>
<path d="M74.2845 15.1493H76.2653V26.6314H80.9656V11.8256H74.3181V15.1493H74.2845Z" fill="#222831"/>
<path d="M92.4479 11.3888C90.3999 11.3888 88.9898 12.2617 87.8819 13.8396H87.7812V11.8252H83.2824V26.5975H87.9826V18.4392C87.9826 16.6262 89.0234 15.3169 90.5678 15.3169C92.1121 15.3169 92.8843 16.3912 92.8843 17.9356V26.5975H97.5846V16.9955C97.5846 13.7054 95.6709 11.3888 92.4479 11.3888Z" fill="#222831"/>
<path d="M108.596 5.94983H99.8V26.5639H108.26C110.846 26.5639 112.927 25.8924 114.539 24.6838C116.855 22.9044 118.131 20.0171 118.131 16.3576C118.131 10.0793 114.304 5.94983 108.596 5.94983ZM107.891 22.3H104.903V10.2136H107.958C111.148 10.2136 112.994 12.6309 112.994 16.3911C112.961 20.1849 111.248 22.3 107.891 22.3Z" fill="#222831"/>
<path d="M132.064 13.3362C130.789 12.1947 129.11 11.4896 127.028 11.4896C122.53 11.4896 119.474 14.8805 119.474 19.2786C119.474 23.7439 122.462 27.1348 127.331 27.1348C129.211 27.1348 130.688 26.6312 131.93 25.7919C133.206 24.8854 134.079 23.6432 134.415 22.3002H129.849C129.446 23.2067 128.64 23.7775 127.398 23.7775C125.484 23.7775 124.376 22.5353 124.074 20.5544H134.683C134.683 17.4993 133.81 14.9477 132.064 13.3362ZM124.074 17.7007C124.376 15.9213 125.316 14.8134 127.096 14.8134C128.606 14.8134 129.714 15.9549 129.882 17.7007H124.074Z" fill="#222831"/>
<path d="M143.915 17.365C142.035 17.0292 140.39 16.8614 140.39 15.8542C140.39 14.9477 141.297 14.5112 142.438 14.5112C143.748 14.5112 144.62 14.9141 144.788 16.2235H149.119C148.884 13.3026 146.635 11.4896 142.472 11.4896C138.98 11.4896 136.093 13.1011 136.093 16.2235C136.093 19.6815 138.812 20.3866 141.397 20.7894C143.378 21.1252 145.158 21.293 145.158 22.6024C145.158 23.576 144.251 24.0796 142.841 24.0796C141.297 24.0796 140.323 23.3746 140.122 21.8974H135.69C135.824 25.154 138.544 27.1684 142.875 27.1684C146.736 27.1684 149.589 25.4897 149.589 22.2667C149.556 18.4729 146.534 17.8014 143.915 17.365Z" fill="#222831"/>
<path d="M160.602 17.3651L165.806 11.8255H160.4L156.002 16.828V5.98376H151.369V26.6314H156.002V22.099L157.412 20.5882L160.938 26.6314H166.377L160.602 17.3651Z" fill="#222831"/>
<path d="M16.3704 17.7008C17.1426 17.7008 17.7804 17.0629 17.7804 16.2907C17.7804 15.5185 17.1426 14.8806 16.3704 14.8806C15.5982 14.8806 14.9603 15.5185 14.9603 16.2907C14.9603 17.0629 15.5646 17.7008 16.3704 17.7008Z" fill="#222831"/>
<path d="M27.7179 17.7008C28.4901 17.7008 29.128 17.0629 29.128 16.2907C29.128 15.5185 28.4901 14.8806 27.7179 14.8806C26.9458 14.8806 26.3079 15.5185 26.3079 16.2907C26.3079 17.0629 26.9122 17.7008 27.7179 17.7008Z" fill="#222831"/>
<path d="M27.718 29.1156C28.4902 29.1156 29.1281 28.4777 29.1281 27.7055C29.1281 26.9333 28.4902 26.2954 27.718 26.2954C26.9458 26.2954 26.3079 26.9333 26.3079 27.7055C26.2743 28.4777 26.9122 29.1156 27.718 29.1156Z" fill="#222831"/>
<path d="M31.8814 4.64076C31.7471 2.55921 30.0684 0.880547 27.9869 0.712681C26.6439 0.611961 25.4689 1.11556 24.6295 1.98847C23.9916 2.65994 23.1187 3.02924 22.2122 3.02924H21.8765C20.9365 3.02924 20.0636 2.62636 19.3921 1.95489C18.6199 1.18271 17.5456 0.712681 16.3705 0.712681C15.1954 0.712681 14.1211 1.21628 13.3489 1.95489C12.6774 2.62636 11.8045 3.02924 10.8645 3.02924H10.5623C9.65582 3.02924 8.74934 2.65994 8.11144 2.02204C7.97715 1.88775 7.84286 1.75346 7.70856 1.65273C6.13062 0.343375 3.78048 0.410523 2.23611 1.75346C0.389578 3.39855 0.32243 6.25228 2.03467 7.96452C2.06824 7.9981 2.06824 7.9981 2.10182 8.03167C2.77328 8.66956 3.14259 9.57604 3.14259 10.4825V10.8183C3.14259 11.7583 2.73971 12.6312 2.06824 13.3027C1.29606 14.0749 0.826031 15.1492 0.826031 16.3243C0.826031 17.4993 1.32963 18.5737 2.06824 19.3459C2.73971 20.0173 3.14259 20.8903 3.14259 21.8303V22.2668C3.14259 23.1732 2.73971 24.0462 2.10182 24.684C1.26248 25.4898 0.758884 26.6313 0.826031 27.9071C0.926751 30.1229 2.70614 31.9023 4.92198 31.9695C6.19776 32.003 7.33926 31.4994 8.14502 30.6601C8.78291 29.9886 9.65582 29.5858 10.5623 29.5858H10.9316C11.8381 29.5858 12.711 29.9886 13.3489 30.6601C14.1882 31.533 15.3969 32.0366 16.7398 31.9695C18.8213 31.8352 20.5 30.1229 20.6679 28.0414C20.8357 25.557 18.8885 23.4754 16.4376 23.4754C15.2626 23.4754 14.2218 23.9454 13.4496 24.7176C12.7781 25.3891 11.9052 25.7584 10.9988 25.7584H10.5959C9.68939 25.7584 8.78291 25.3891 8.11144 24.7176C8.07787 24.684 8.07787 24.684 8.07787 24.684C7.40641 24.0126 7.00352 23.1397 7.00352 22.1996V21.7967C7.00352 20.8567 7.40641 19.9838 8.07787 19.3123C8.85006 18.5401 9.32008 17.4658 9.32008 16.2907C9.32008 15.1156 8.81649 14.0413 8.07787 13.2691C7.40641 12.5976 7.00352 11.7247 7.00352 10.7847V10.4489C7.00352 9.50889 7.4064 8.63599 8.0443 7.96452C8.07787 7.93095 8.07787 7.93095 8.07787 7.93095C8.11145 7.89737 8.11144 7.89738 8.11144 7.89738C8.78291 7.22591 9.65582 6.8566 10.5959 6.8566H10.9316C11.8717 6.8566 12.7446 7.25948 13.416 7.93095C14.1882 8.70313 15.2626 9.17316 16.4376 9.17316C17.6127 9.17316 18.687 8.66956 19.4592 7.93095C20.1307 7.25948 21.0036 6.8566 21.9437 6.8566H22.2458C23.1859 6.8566 24.0588 7.25948 24.7302 7.93095C25.5024 8.70313 26.5768 9.17316 27.7518 9.17316C30.102 9.20673 32.0492 7.12519 31.8814 4.64076Z" fill="#222831"/>
</svg>
